<svg xmlns="http://www.w3.org/2000/svg" xmlns:xlink="http://www.w3.org/1999/xlink" width="1920" zoomAndPan="magnify" viewBox="0 0 1440 809.999993" height="1080" preserveAspectRatio="xMidYMid meet" version="1.0"><defs><g/></defs><g fill="#e4e2dd" fill-opacity="1"><g transform="translate(-39.752998, 809.101297)"><g><path d="M 280.226562 -797.292969 L 11.726562 -709.355469 L 11.726562 -588.589844 L 104.351562 -588.589844 L 104.351562 0 L 280.226562 0 Z M 280.226562 -797.292969 "/></g></g></g><g fill="#e4e2dd" fill-opacity="1"><g transform="translate(241.644048, 809.101297)"><g><path d="M 361.125 -649.558594 C 477.203125 -649.558594 505.34375 -498.308594 505.34375 -395.128906 C 505.34375 -289.605469 472.511719 -145.390625 361.125 -145.390625 C 247.394531 -145.390625 216.910156 -287.261719 216.910156 -397.472656 C 216.910156 -498.308594 247.394531 -649.558594 361.125 -649.558594 Z M 361.125 14.070312 C 590.933594 14.070312 681.214844 -229.808594 681.214844 -396.300781 C 681.214844 -540.519531 605.003906 -809.019531 361.125 -809.019531 C 117.25 -809.019531 41.039062 -540.519531 41.039062 -396.300781 C 41.039062 -229.808594 131.320312 14.070312 361.125 14.070312 Z M 361.125 14.070312 "/></g></g></g><g fill="#e4e2dd" fill-opacity="1"><g transform="translate(1115.476834, 212.840928)"><g><path d="M 13.714844 -18.628906 L 11.609375 -18.628906 C 10.234375 -18.628906 8.992188 -18.253906 7.804688 -17.578125 L 3.1875 -14.929688 L 3.1875 -10.585938 L 8.855469 -13.554688 L 8.855469 0 L 13.714844 0 Z M 13.714844 -18.628906 "/></g></g></g><g fill="#e4e2dd" fill-opacity="1"><g transform="translate(1131.001845, 212.840928)"><g><path d="M 16.6875 -18.628906 L 1.539062 -18.628906 L 1.539062 -14.851562 L 10.933594 -14.851562 L 2.726562 0 L 8.046875 0 L 16.6875 -15.929688 Z M 16.6875 -18.628906 "/></g></g></g><g fill="#e4e2dd" fill-opacity="1"><g transform="translate(1115.476834, 249.499695)"><g><path d="M 9.152344 -3.78125 L 11.636719 -6.183594 C 15.226562 -9.640625 16.226562 -11.3125 16.226562 -13.5 C 16.226562 -16.984375 13.796875 -19.0625 9.449219 -19.0625 C 4.886719 -19.0625 2.296875 -16.765625 1.890625 -12.664062 L 1.863281 -12.394531 L 6.722656 -12.394531 L 6.75 -12.664062 C 6.9375 -14.605469 7.640625 -15.496094 9.046875 -15.496094 C 10.367188 -15.496094 11.152344 -14.714844 11.152344 -13.3125 C 11.152344 -11.527344 10.207031 -10.234375 7.425781 -7.613281 L 1.566406 -2.105469 L 1.566406 0 L 16.011719 0 L 16.011719 -3.78125 Z M 9.152344 -3.78125 "/></g></g></g><g fill="#e4e2dd" fill-opacity="1"><g transform="translate(1131.001845, 249.499695)"><g><path d="M 16.902344 -4.15625 L 16.902344 -7.9375 L 14.632812 -7.9375 L 14.632812 -18.628906 L 9.34375 -18.628906 L 1.027344 -6.832031 L 1.027344 -4.15625 L 9.773438 -4.15625 L 9.773438 0 L 14.632812 0 L 14.632812 -4.15625 Z M 9.773438 -7.9375 L 6.019531 -7.9375 L 8.773438 -11.851562 C 9.070312 -12.257812 9.394531 -12.824219 9.773438 -13.5 Z M 9.773438 -7.9375 "/></g></g></g><g fill="#e4e2dd" fill-opacity="1"><g transform="translate(1115.50331, 286.153102)"><g><path d="M 12.421875 -9.800781 C 14.851562 -10.394531 15.957031 -11.851562 15.957031 -14.039062 C 15.957031 -16.6875 13.851562 -19.007812 9.289062 -19.007812 C 4.453125 -19.007812 2.132812 -16.199219 1.808594 -13.066406 L 1.78125 -12.796875 L 6.640625 -12.796875 L 6.667969 -13.066406 C 6.777344 -14.28125 7.371094 -15.445312 8.800781 -15.445312 C 10.152344 -15.445312 10.882812 -14.6875 10.882812 -13.472656 C 10.882812 -12.203125 9.988281 -11.230469 8.207031 -11.097656 L 7.480469 -11.042969 L 7.480469 -7.910156 L 8.207031 -7.882812 C 10.152344 -7.804688 11.3125 -6.992188 11.3125 -5.398438 C 11.3125 -4.132812 10.261719 -3.1875 8.585938 -3.1875 C 6.992188 -3.1875 6.074219 -4.347656 5.804688 -5.644531 L 5.75 -5.914062 L 0.890625 -5.914062 L 0.917969 -5.644531 C 1.296875 -1.917969 4.050781 0.378906 8.773438 0.378906 C 13.472656 0.378906 16.390625 -1.972656 16.390625 -5.535156 C 16.390625 -7.9375 15.066406 -9.289062 12.421875 -9.800781 Z M 12.421875 -9.800781 "/></g></g></g><g fill="#e4e2dd" fill-opacity="1"><g transform="translate(1131.028321, 286.153102)"><g><path d="M 13.714844 -18.628906 L 11.609375 -18.628906 C 10.234375 -18.628906 8.992188 -18.253906 7.804688 -17.578125 L 3.1875 -14.929688 L 3.1875 -10.585938 L 8.855469 -13.554688 L 8.855469 0 L 13.714844 0 Z M 13.714844 -18.628906 "/></g></g></g><g fill="#e4e2dd" fill-opacity="1"><g transform="translate(1063.080316, 212.840928)"><g><path d="M 13.714844 -18.628906 L 11.609375 -18.628906 C 10.234375 -18.628906 8.992188 -18.253906 7.804688 -17.578125 L 3.1875 -14.929688 L 3.1875 -10.585938 L 8.855469 -13.554688 L 8.855469 0 L 13.714844 0 Z M 13.714844 -18.628906 "/></g></g></g><g fill="#e4e2dd" fill-opacity="1"><g transform="translate(1078.605327, 212.840928)"><g><path d="M 10.476562 -12.472656 C 9.179688 -12.472656 8.207031 -12.285156 7.210938 -11.503906 L 6.34375 -9.828125 C 6.480469 -13.714844 7.453125 -15.445312 9.261719 -15.445312 C 10.394531 -15.445312 11.070312 -14.902344 11.449219 -13.609375 L 11.503906 -13.339844 L 16.363281 -13.339844 L 16.335938 -13.609375 C 15.902344 -16.929688 13.6875 -19.007812 9.53125 -19.007812 C 4.671875 -19.007812 1.457031 -15.390625 1.457031 -8.964844 C 1.457031 -2.511719 3.996094 0.378906 9.070312 0.378906 C 12.960938 0.378906 16.550781 -1.972656 16.550781 -6.5625 C 16.550781 -9.746094 14.714844 -12.472656 10.476562 -12.472656 Z M 9.019531 -3.1875 C 7.480469 -3.1875 6.535156 -4.320312 6.535156 -6.074219 C 6.535156 -7.882812 7.640625 -8.910156 8.964844 -8.910156 C 10.558594 -8.910156 11.476562 -7.777344 11.476562 -5.96875 C 11.476562 -4.507812 10.664062 -3.1875 9.019531 -3.1875 Z M 9.019531 -3.1875 "/></g></g></g><g fill="#e4e2dd" fill-opacity="1"><g transform="translate(1063.080316, 249.499695)"><g><path d="M 9.152344 -3.78125 L 11.636719 -6.183594 C 15.226562 -9.640625 16.226562 -11.3125 16.226562 -13.5 C 16.226562 -16.984375 13.796875 -19.0625 9.449219 -19.0625 C 4.886719 -19.0625 2.296875 -16.765625 1.890625 -12.664062 L 1.863281 -12.394531 L 6.722656 -12.394531 L 6.75 -12.664062 C 6.9375 -14.605469 7.640625 -15.496094 9.046875 -15.496094 C 10.367188 -15.496094 11.152344 -14.714844 11.152344 -13.3125 C 11.152344 -11.527344 10.207031 -10.234375 7.425781 -7.613281 L 1.566406 -2.105469 L 1.566406 0 L 16.011719 0 L 16.011719 -3.78125 Z M 9.152344 -3.78125 "/></g></g></g><g fill="#e4e2dd" fill-opacity="1"><g transform="translate(1078.605327, 249.499695)"><g><path d="M 12.421875 -9.800781 C 14.851562 -10.394531 15.957031 -11.851562 15.957031 -14.039062 C 15.957031 -16.6875 13.851562 -19.007812 9.289062 -19.007812 C 4.453125 -19.007812 2.132812 -16.199219 1.808594 -13.066406 L 1.78125 -12.796875 L 6.640625 -12.796875 L 6.667969 -13.066406 C 6.777344 -14.28125 7.371094 -15.445312 8.800781 -15.445312 C 10.152344 -15.445312 10.882812 -14.6875 10.882812 -13.472656 C 10.882812 -12.203125 9.988281 -11.230469 8.207031 -11.097656 L 7.480469 -11.042969 L 7.480469 -7.910156 L 8.207031 -7.882812 C 10.152344 -7.804688 11.3125 -6.992188 11.3125 -5.398438 C 11.3125 -4.132812 10.261719 -3.1875 8.585938 -3.1875 C 6.992188 -3.1875 6.074219 -4.347656 5.804688 -5.644531 L 5.75 -5.914062 L 0.890625 -5.914062 L 0.917969 -5.644531 C 1.296875 -1.917969 4.050781 0.378906 8.773438 0.378906 C 13.472656 0.378906 16.390625 -1.972656 16.390625 -5.535156 C 16.390625 -7.9375 15.066406 -9.289062 12.421875 -9.800781 Z M 12.421875 -9.800781 "/></g></g></g><g fill="#e4e2dd" fill-opacity="1"><g transform="translate(1063.106791, 286.153102)"><g><path d="M 12.421875 -9.800781 C 14.851562 -10.394531 15.957031 -11.851562 15.957031 -14.039062 C 15.957031 -16.6875 13.851562 -19.007812 9.289062 -19.007812 C 4.453125 -19.007812 2.132812 -16.199219 1.808594 -13.066406 L 1.78125 -12.796875 L 6.640625 -12.796875 L 6.667969 -13.066406 C 6.777344 -14.28125 7.371094 -15.445312 8.800781 -15.445312 C 10.152344 -15.445312 10.882812 -14.6875 10.882812 -13.472656 C 10.882812 -12.203125 9.988281 -11.230469 8.207031 -11.097656 L 7.480469 -11.042969 L 7.480469 -7.910156 L 8.207031 -7.882812 C 10.152344 -7.804688 11.3125 -6.992188 11.3125 -5.398438 C 11.3125 -4.132812 10.261719 -3.1875 8.585938 -3.1875 C 6.992188 -3.1875 6.074219 -4.347656 5.804688 -5.644531 L 5.75 -5.914062 L 0.890625 -5.914062 L 0.917969 -5.644531 C 1.296875 -1.917969 4.050781 0.378906 8.773438 0.378906 C 13.472656 0.378906 16.390625 -1.972656 16.390625 -5.535156 C 16.390625 -7.9375 15.066406 -9.289062 12.421875 -9.800781 Z M 12.421875 -9.800781 "/></g></g></g><g fill="#e4e2dd" fill-opacity="1"><g transform="translate(1078.631803, 286.153102)"><g><path d="M 8.9375 -19.007812 C 3.535156 -19.007812 1.242188 -15.550781 1.242188 -9.316406 C 1.242188 -3.105469 3.535156 0.378906 8.9375 0.378906 C 14.335938 0.378906 16.632812 -3.105469 16.632812 -9.316406 C 16.632812 -15.550781 14.335938 -19.007812 8.9375 -19.007812 Z M 8.9375 -3.1875 C 7.234375 -3.1875 6.316406 -4.726562 6.316406 -9.316406 C 6.316406 -13.933594 7.234375 -15.445312 8.9375 -15.445312 C 10.636719 -15.445312 11.554688 -13.933594 11.554688 -9.316406 C 11.554688 -4.726562 10.636719 -3.1875 8.9375 -3.1875 Z M 8.9375 -3.1875 "/></g></g></g><g fill="#e4e2dd" fill-opacity="1"><g transform="translate(1010.255232, 212.840928)"><g><path d="M 13.714844 -18.628906 L 11.609375 -18.628906 C 10.234375 -18.628906 8.992188 -18.253906 7.804688 -17.578125 L 3.1875 -14.929688 L 3.1875 -10.585938 L 8.855469 -13.554688 L 8.855469 0 L 13.714844 0 Z M 13.714844 -18.628906 "/></g></g></g><g fill="#e4e2dd" fill-opacity="1"><g transform="translate(1025.780244, 212.840928)"><g><path d="M 10.234375 -12.691406 C 9.207031 -12.691406 8.207031 -12.5 7.34375 -12.015625 L 6.640625 -10.773438 L 7.234375 -14.851562 L 15.660156 -14.851562 L 15.660156 -18.628906 L 3.238281 -18.628906 L 1.863281 -7.453125 L 6.34375 -7.453125 C 6.777344 -8.585938 7.480469 -9.125 8.722656 -9.125 C 10.394531 -9.125 11.3125 -7.855469 11.3125 -6.15625 C 11.3125 -4.480469 10.449219 -3.1875 8.640625 -3.1875 C 7.316406 -3.1875 6.5625 -3.96875 6.425781 -5.238281 L 6.398438 -5.507812 L 1.539062 -5.507812 L 1.566406 -5.238281 C 1.972656 -1.269531 4.480469 0.378906 8.964844 0.378906 C 12.796875 0.378906 16.390625 -1.917969 16.390625 -6.289062 C 16.390625 -10.367188 13.960938 -12.691406 10.234375 -12.691406 Z M 10.234375 -12.691406 "/></g></g></g><g fill="#e4e2dd" fill-opacity="1"><g transform="translate(1010.255232, 249.499695)"><g><path d="M 9.152344 -3.78125 L 11.636719 -6.183594 C 15.226562 -9.640625 16.226562 -11.3125 16.226562 -13.5 C 16.226562 -16.984375 13.796875 -19.0625 9.449219 -19.0625 C 4.886719 -19.0625 2.296875 -16.765625 1.890625 -12.664062 L 1.863281 -12.394531 L 6.722656 -12.394531 L 6.75 -12.664062 C 6.9375 -14.605469 7.640625 -15.496094 9.046875 -15.496094 C 10.367188 -15.496094 11.152344 -14.714844 11.152344 -13.3125 C 11.152344 -11.527344 10.207031 -10.234375 7.425781 -7.613281 L 1.566406 -2.105469 L 1.566406 0 L 16.011719 0 L 16.011719 -3.78125 Z M 9.152344 -3.78125 "/></g></g></g><g fill="#e4e2dd" fill-opacity="1"><g transform="translate(1025.780244, 249.499695)"><g><path d="M 9.152344 -3.78125 L 11.636719 -6.183594 C 15.226562 -9.640625 16.226562 -11.3125 16.226562 -13.5 C 16.226562 -16.984375 13.796875 -19.0625 9.449219 -19.0625 C 4.886719 -19.0625 2.296875 -16.765625 1.890625 -12.664062 L 1.863281 -12.394531 L 6.722656 -12.394531 L 6.75 -12.664062 C 6.9375 -14.605469 7.640625 -15.496094 9.046875 -15.496094 C 10.367188 -15.496094 11.152344 -14.714844 11.152344 -13.3125 C 11.152344 -11.527344 10.207031 -10.234375 7.425781 -7.613281 L 1.566406 -2.105469 L 1.566406 0 L 16.011719 0 L 16.011719 -3.78125 Z M 9.152344 -3.78125 "/></g></g></g><g fill="#e4e2dd" fill-opacity="1"><g transform="translate(1010.53731, 286.153102)"><g><path d="M 9.152344 -3.78125 L 11.636719 -6.183594 C 15.226562 -9.640625 16.226562 -11.3125 16.226562 -13.5 C 16.226562 -16.984375 13.796875 -19.0625 9.449219 -19.0625 C 4.886719 -19.0625 2.296875 -16.765625 1.890625 -12.664062 L 1.863281 -12.394531 L 6.722656 -12.394531 L 6.75 -12.664062 C 6.9375 -14.605469 7.640625 -15.496094 9.046875 -15.496094 C 10.367188 -15.496094 11.152344 -14.714844 11.152344 -13.3125 C 11.152344 -11.527344 10.207031 -10.234375 7.425781 -7.613281 L 1.566406 -2.105469 L 1.566406 0 L 16.011719 0 L 16.011719 -3.78125 Z M 9.152344 -3.78125 "/></g></g></g><g fill="#e4e2dd" fill-opacity="1"><g transform="translate(1026.062322, 286.153102)"><g><path d="M 8.800781 -19.007812 C 4.914062 -19.007812 1.324219 -16.660156 1.324219 -12.070312 C 1.324219 -8.882812 3.160156 -6.15625 7.398438 -6.15625 C 8.695312 -6.15625 9.664062 -6.34375 10.664062 -7.128906 L 11.527344 -8.800781 C 11.394531 -4.914062 10.421875 -3.1875 8.613281 -3.1875 C 7.371094 -3.1875 6.695312 -3.726562 6.425781 -5.023438 L 6.371094 -5.292969 L 1.511719 -5.292969 L 1.539062 -5.023438 C 1.863281 -1.699219 4.078125 0.378906 8.34375 0.378906 C 13.3125 0.378906 16.414062 -3.238281 16.414062 -9.664062 C 16.414062 -16.117188 13.878906 -19.007812 8.800781 -19.007812 Z M 8.910156 -9.71875 C 7.316406 -9.71875 6.398438 -10.855469 6.398438 -12.664062 C 6.398438 -14.121094 7.210938 -15.445312 8.855469 -15.445312 C 10.394531 -15.445312 11.339844 -14.308594 11.339844 -12.554688 C 11.339844 -10.746094 10.234375 -9.71875 8.910156 -9.71875 Z M 8.910156 -9.71875 "/></g></g></g><g fill="#e4e2dd" fill-opacity="1"><g transform="translate(1000.126252, 720.451928)"><g><path d="M 14.648438 -25.339844 C 6.910156 -25.339844 1.945312 -20.40625 1.945312 -12.417969 C 1.945312 -4.464844 6.910156 0.503906 14.648438 0.503906 C 22.386719 0.503906 27.355469 -4.464844 27.355469 -12.417969 C 27.355469 -20.40625 22.386719 -25.339844 14.648438 -25.339844 Z M 14.648438 -4.246094 C 10.90625 -4.246094 8.566406 -7.164062 8.566406 -12.417969 C 8.566406 -17.707031 10.90625 -20.585938 14.648438 -20.585938 C 18.390625 -20.585938 20.730469 -17.707031 20.730469 -12.417969 C 20.730469 -7.164062 18.390625 -4.246094 14.648438 -4.246094 Z M 14.648438 -4.246094 "/></g></g></g><g fill="#e4e2dd" fill-opacity="1"><g transform="translate(1026.901017, 720.451928)"><g><path d="M 10.976562 -19.722656 C 5.328125 -19.722656 0.863281 -16.015625 0.863281 -9.394531 C 0.863281 -3.058594 5.039062 0.503906 10.546875 0.503906 C 15.765625 0.503906 19.617188 -2.085938 20.335938 -7.054688 L 13.964844 -7.054688 C 13.605469 -4.96875 12.382812 -3.886719 10.90625 -3.886719 C 8.710938 -3.886719 7.488281 -5.6875 7.488281 -9.789062 C 7.488281 -13.496094 8.675781 -15.332031 10.832031 -15.332031 C 12.453125 -15.332031 13.714844 -14.398438 14 -11.878906 L 20.265625 -11.878906 C 20.082031 -16.195312 16.628906 -19.722656 10.976562 -19.722656 Z M 10.976562 -19.722656 "/></g></g></g><g fill="#e4e2dd" fill-opacity="1"><g transform="translate(1046.442143, 720.451928)"><g><path d="M 9.71875 -15.042969 L 13.964844 -15.042969 L 13.964844 -19.074219 L 9.71875 -19.074219 L 9.71875 -24.042969 L 3.238281 -24.042969 L 3.238281 -19.074219 L 0.179688 -19.074219 L 0.179688 -15.042969 L 3.238281 -15.042969 L 3.238281 -7.019531 C 3.238281 -5.9375 3.238281 -5.039062 3.3125 -3.921875 C 3.527344 -0.972656 4.96875 0.503906 9.753906 0.503906 C 11.121094 0.503906 12.308594 0.394531 13.570312 0.179688 L 13.570312 -3.851562 C 10.511719 -3.707031 9.898438 -4.140625 9.753906 -6.082031 C 9.71875 -6.585938 9.71875 -7.304688 9.71875 -7.953125 Z M 9.71875 -15.042969 "/></g></g></g><g fill="#e4e2dd" fill-opacity="1"><g transform="translate(1059.25346, 720.451928)"><g><path d="M 11.195312 -19.722656 C 4.894531 -19.722656 0.863281 -15.800781 0.863281 -9.609375 C 0.863281 -3.457031 4.894531 0.503906 11.195312 0.503906 C 17.492188 0.503906 21.523438 -3.457031 21.523438 -9.609375 C 21.523438 -15.800781 17.492188 -19.722656 11.195312 -19.722656 Z M 11.195312 -3.886719 C 8.890625 -3.886719 7.488281 -5.792969 7.488281 -9.609375 C 7.488281 -13.460938 8.890625 -15.332031 11.195312 -15.332031 C 13.496094 -15.332031 14.902344 -13.460938 14.902344 -9.609375 C 14.902344 -5.792969 13.496094 -3.886719 11.195312 -3.886719 Z M 11.195312 -3.886719 "/></g></g></g><g fill="#e4e2dd" fill-opacity="1"><g transform="translate(1080.054171, 720.451928)"><g><path d="M 14.757812 -19.722656 C 12.8125 -19.722656 10.941406 -19.328125 9.863281 -18.535156 L 8.421875 -16.414062 L 8.421875 -26.453125 L 1.945312 -26.453125 L 1.945312 0 L 8.421875 0 L 8.421875 -2.484375 L 9.683594 -0.433594 C 10.652344 0.144531 12.523438 0.503906 14.109375 0.503906 C 19.039062 0.503906 23.214844 -3.203125 23.214844 -10.042969 C 23.214844 -15.730469 19.976562 -19.722656 14.757812 -19.722656 Z M 12.34375 -3.886719 C 10.402344 -3.886719 8.421875 -5.183594 8.421875 -9.035156 L 8.421875 -9.863281 C 8.421875 -13.894531 10.148438 -15.332031 12.523438 -15.332031 C 14.792969 -15.332031 16.59375 -13.316406 16.59375 -9.71875 C 16.59375 -5.792969 14.863281 -3.886719 12.34375 -3.886719 Z M 12.34375 -3.886719 "/></g></g></g><g fill="#e4e2dd" fill-opacity="1"><g transform="translate(1102.546325, 720.451928)"><g><path d="M 20.769531 -9.863281 C 20.769531 -14.828125 17.527344 -19.722656 11.121094 -19.722656 C 4.714844 -19.722656 0.863281 -15.152344 0.863281 -9.539062 C 0.863281 -2.769531 5.253906 0.503906 10.761719 0.503906 C 15.691406 0.503906 19.292969 -1.945312 20.40625 -6.296875 L 14.035156 -6.296875 C 13.785156 -4.824219 12.667969 -3.886719 10.832031 -3.886719 C 9 -3.886719 7.59375 -4.785156 7.269531 -7.992188 L 20.660156 -7.992188 C 20.730469 -8.636719 20.769531 -9.285156 20.769531 -9.863281 Z M 10.796875 -15.332031 C 12.523438 -15.332031 13.640625 -14.21875 14 -11.949219 L 7.488281 -11.949219 C 7.917969 -14.324219 9.105469 -15.332031 10.796875 -15.332031 Z M 10.796875 -15.332031 "/></g></g></g><g fill="#e4e2dd" fill-opacity="1"><g transform="translate(1122.591292, 720.451928)"><g><path d="M 13.570312 -19.722656 C 12.34375 -19.722656 10.832031 -19.183594 9.789062 -18.03125 L 8.421875 -15.332031 L 8.421875 -19.21875 L 1.945312 -19.21875 L 1.945312 0 L 8.421875 0 L 8.421875 -7.054688 C 8.421875 -12.847656 10.1875 -14.648438 15.042969 -14.324219 L 15.042969 -19.617188 C 14.578125 -19.6875 14.179688 -19.722656 13.570312 -19.722656 Z M 13.570312 -19.722656 "/></g></g></g><g fill="#e4e2dd" fill-opacity="1"><g transform="translate(1273.094245, 720.360032)"><g><path d="M 12.203125 -5.039062 L 15.511719 -8.242188 C 20.300781 -12.847656 21.632812 -15.082031 21.632812 -17.996094 C 21.632812 -22.640625 18.390625 -25.410156 12.597656 -25.410156 C 6.515625 -25.410156 3.058594 -22.351562 2.519531 -16.878906 L 2.484375 -16.519531 L 8.960938 -16.519531 L 9 -16.878906 C 9.25 -19.472656 10.1875 -20.660156 12.058594 -20.660156 C 13.820312 -20.660156 14.863281 -19.617188 14.863281 -17.746094 C 14.863281 -15.367188 13.605469 -13.640625 9.898438 -10.148438 L 2.085938 -2.808594 L 2.085938 0 L 21.34375 0 L 21.34375 -5.039062 Z M 12.203125 -5.039062 "/></g></g></g><g fill="#e4e2dd" fill-opacity="1"><g transform="translate(1293.786493, 720.360032)"><g><path d="M 11.914062 -25.339844 C 4.714844 -25.339844 1.65625 -20.730469 1.65625 -12.417969 C 1.65625 -4.140625 4.714844 0.503906 11.914062 0.503906 C 19.113281 0.503906 22.171875 -4.140625 22.171875 -12.417969 C 22.171875 -20.730469 19.113281 -25.339844 11.914062 -25.339844 Z M 11.914062 -4.246094 C 9.644531 -4.246094 8.421875 -6.296875 8.421875 -12.417969 C 8.421875 -18.570312 9.644531 -20.585938 11.914062 -20.585938 C 14.179688 -20.585938 15.40625 -18.570312 15.40625 -12.417969 C 15.40625 -6.296875 14.179688 -4.246094 11.914062 -4.246094 Z M 11.914062 -4.246094 "/></g></g></g><g fill="#e4e2dd" fill-opacity="1"><g transform="translate(1314.478742, 720.360032)"><g><path d="M 12.203125 -5.039062 L 15.511719 -8.242188 C 20.300781 -12.847656 21.632812 -15.082031 21.632812 -17.996094 C 21.632812 -22.640625 18.390625 -25.410156 12.597656 -25.410156 C 6.515625 -25.410156 3.058594 -22.351562 2.519531 -16.878906 L 2.484375 -16.519531 L 8.960938 -16.519531 L 9 -16.878906 C 9.25 -19.472656 10.1875 -20.660156 12.058594 -20.660156 C 13.820312 -20.660156 14.863281 -19.617188 14.863281 -17.746094 C 14.863281 -15.367188 13.605469 -13.640625 9.898438 -10.148438 L 2.085938 -2.808594 L 2.085938 0 L 21.34375 0 L 21.34375 -5.039062 Z M 12.203125 -5.039062 "/></g></g></g><g fill="#e4e2dd" fill-opacity="1"><g transform="translate(1335.170989, 720.360032)"><g><path d="M 16.554688 -13.066406 C 19.796875 -13.855469 21.273438 -15.800781 21.273438 -18.714844 C 21.273438 -22.242188 18.464844 -25.339844 12.382812 -25.339844 C 5.9375 -25.339844 2.84375 -21.59375 2.410156 -17.421875 L 2.375 -17.058594 L 8.855469 -17.058594 L 8.890625 -17.421875 C 9.035156 -19.039062 9.824219 -20.585938 11.734375 -20.585938 C 13.53125 -20.585938 14.503906 -19.578125 14.503906 -17.960938 C 14.503906 -16.269531 13.316406 -14.972656 10.941406 -14.792969 L 9.96875 -14.722656 L 9.96875 -10.546875 L 10.941406 -10.511719 C 13.53125 -10.402344 15.082031 -9.320312 15.082031 -7.199219 C 15.082031 -5.507812 13.675781 -4.246094 11.445312 -4.246094 C 9.320312 -4.246094 8.097656 -5.792969 7.738281 -7.523438 L 7.667969 -7.882812 L 1.1875 -7.882812 L 1.222656 -7.523438 C 1.726562 -2.554688 5.398438 0.503906 11.699219 0.503906 C 17.960938 0.503906 21.847656 -2.628906 21.847656 -7.378906 C 21.847656 -10.582031 20.082031 -12.382812 16.554688 -13.066406 Z M 16.554688 -13.066406 "/></g></g></g><g fill="#e4e2dd" fill-opacity="1"><g transform="translate(1327.78319, 176.192927)"><g><path d="M 13.714844 -18.628906 L 11.609375 -18.628906 C 10.234375 -18.628906 8.992188 -18.253906 7.804688 -17.578125 L 3.1875 -14.929688 L 3.1875 -10.585938 L 8.855469 -13.554688 L 8.855469 0 L 13.714844 0 Z M 13.714844 -18.628906 "/></g></g></g><g fill="#e4e2dd" fill-opacity="1"><g transform="translate(1343.308202, 176.192927)"><g><path d="M 16.902344 -4.15625 L 16.902344 -7.9375 L 14.632812 -7.9375 L 14.632812 -18.628906 L 9.34375 -18.628906 L 1.027344 -6.832031 L 1.027344 -4.15625 L 9.773438 -4.15625 L 9.773438 0 L 14.632812 0 L 14.632812 -4.15625 Z M 9.773438 -7.9375 L 6.019531 -7.9375 L 8.773438 -11.851562 C 9.070312 -12.257812 9.394531 -12.824219 9.773438 -13.5 Z M 9.773438 -7.9375 "/></g></g></g><g fill="#e4e2dd" fill-opacity="1"><g transform="translate(1335.593854, 139.528775)"><g><path d="M 16.6875 -18.628906 L 1.539062 -18.628906 L 1.539062 -14.851562 L 10.933594 -14.851562 L 2.726562 0 L 8.046875 0 L 16.6875 -15.929688 Z M 16.6875 -18.628906 "/></g></g></g><g fill="#e4e2dd" fill-opacity="1"><g transform="translate(1328.024111, 212.851694)"><g><path d="M 9.152344 -3.78125 L 11.636719 -6.183594 C 15.226562 -9.640625 16.226562 -11.3125 16.226562 -13.5 C 16.226562 -16.984375 13.796875 -19.0625 9.449219 -19.0625 C 4.886719 -19.0625 2.296875 -16.765625 1.890625 -12.664062 L 1.863281 -12.394531 L 6.722656 -12.394531 L 6.75 -12.664062 C 6.9375 -14.605469 7.640625 -15.496094 9.046875 -15.496094 C 10.367188 -15.496094 11.152344 -14.714844 11.152344 -13.3125 C 11.152344 -11.527344 10.207031 -10.234375 7.425781 -7.613281 L 1.566406 -2.105469 L 1.566406 0 L 16.011719 0 L 16.011719 -3.78125 Z M 9.152344 -3.78125 "/></g></g></g><g fill="#e4e2dd" fill-opacity="1"><g transform="translate(1343.549123, 212.851694)"><g><path d="M 13.714844 -18.628906 L 11.609375 -18.628906 C 10.234375 -18.628906 8.992188 -18.253906 7.804688 -17.578125 L 3.1875 -14.929688 L 3.1875 -10.585938 L 8.855469 -13.554688 L 8.855469 0 L 13.714844 0 Z M 13.714844 -18.628906 "/></g></g></g><g fill="#e4e2dd" fill-opacity="1"><g transform="translate(1328.024111, 249.505085)"><g><path d="M 9.152344 -3.78125 L 11.636719 -6.183594 C 15.226562 -9.640625 16.226562 -11.3125 16.226562 -13.5 C 16.226562 -16.984375 13.796875 -19.0625 9.449219 -19.0625 C 4.886719 -19.0625 2.296875 -16.765625 1.890625 -12.664062 L 1.863281 -12.394531 L 6.722656 -12.394531 L 6.75 -12.664062 C 6.9375 -14.605469 7.640625 -15.496094 9.046875 -15.496094 C 10.367188 -15.496094 11.152344 -14.714844 11.152344 -13.3125 C 11.152344 -11.527344 10.207031 -10.234375 7.425781 -7.613281 L 1.566406 -2.105469 L 1.566406 0 L 16.011719 0 L 16.011719 -3.78125 Z M 9.152344 -3.78125 "/></g></g></g><g fill="#e4e2dd" fill-opacity="1"><g transform="translate(1343.549123, 249.505085)"><g><path d="M 12.960938 -9.882812 C 14.578125 -10.394531 16.066406 -11.476562 16.066406 -13.742188 C 16.066406 -16.820312 13.660156 -19.007812 9.207031 -19.007812 C 4.753906 -19.007812 2.296875 -16.820312 2.296875 -13.742188 C 2.296875 -11.503906 3.457031 -10.394531 4.941406 -9.882812 C 3.105469 -9.234375 1.378906 -7.804688 1.378906 -5.292969 C 1.378906 -1.242188 4.265625 0.40625 8.882812 0.40625 C 13.230469 0.40625 16.496094 -1.242188 16.496094 -5.292969 C 16.496094 -7.828125 14.796875 -9.261719 12.960938 -9.882812 Z M 9.125 -15.445312 C 10.3125 -15.445312 11.125 -14.769531 11.125 -13.527344 C 11.125 -12.175781 10.234375 -11.503906 9.097656 -11.503906 C 7.992188 -11.503906 7.234375 -12.175781 7.234375 -13.527344 C 7.234375 -14.769531 8.074219 -15.445312 9.125 -15.445312 Z M 8.9375 -3.160156 C 7.34375 -3.160156 6.398438 -4.023438 6.398438 -5.5625 C 6.398438 -7.128906 7.53125 -8.019531 8.910156 -8.019531 C 10.53125 -8.019531 11.476562 -7.046875 11.476562 -5.480469 C 11.476562 -4.050781 10.71875 -3.160156 8.9375 -3.160156 Z M 8.9375 -3.160156 "/></g></g></g><g fill="#e4e2dd" fill-opacity="1"><g transform="translate(1018.3053, 102.855015)"><g><path d="M 8.695312 -19.007812 C 4.996094 -19.007812 1.648438 -16.984375 1.648438 -13.390625 C 1.648438 -9.664062 4.132812 -8.34375 8.371094 -7.289062 C 10.664062 -6.722656 11.367188 -5.886719 11.367188 -4.914062 C 11.367188 -3.886719 10.339844 -3.1875 8.992188 -3.1875 C 7.53125 -3.1875 6.101562 -3.941406 5.777344 -5.695312 L 0.917969 -5.695312 C 1.214844 -1.511719 4.402344 0.378906 9.125 0.378906 C 12.878906 0.378906 16.441406 -1.511719 16.441406 -5.238281 C 16.441406 -8.101562 14.769531 -10.152344 10.664062 -11.125 C 7.585938 -11.851562 6.722656 -12.582031 6.722656 -13.769531 C 6.722656 -14.902344 7.480469 -15.445312 8.585938 -15.445312 C 10.179688 -15.445312 10.988281 -14.417969 11.203125 -12.878906 L 16.066406 -12.878906 C 15.660156 -16.335938 13.609375 -19.007812 8.695312 -19.007812 Z M 8.695312 -19.007812 "/></g></g></g><g fill="#e4e2dd" fill-opacity="1"><g transform="translate(1067.122451, 102.855015)"><g><path d="M 23.464844 -18.628906 L 16.066406 -18.628906 L 12.90625 -4.726562 L 9.746094 -18.628906 L 2.160156 -18.628906 L 2.160156 0 L 7.019531 0 L 7.019531 -7.828125 C 7.019531 -9.449219 7.019531 -11.851562 6.964844 -13.742188 C 7.261719 -11.851562 7.804688 -9.449219 8.234375 -7.828125 L 10.3125 0 L 15.308594 0 L 17.359375 -7.828125 C 17.792969 -9.476562 18.332031 -11.851562 18.65625 -13.742188 C 18.601562 -11.851562 18.601562 -9.449219 18.601562 -7.828125 L 18.601562 0 L 23.464844 0 Z M 23.464844 -18.628906 "/></g></g></g><g fill="#e4e2dd" fill-opacity="1"><g transform="translate(1123.644802, 102.855015)"><g><path d="M 17.335938 -14.851562 L 17.335938 -18.628906 L 0.378906 -18.628906 L 0.378906 -14.851562 L 6.425781 -14.851562 L 6.425781 0 L 11.285156 0 L 11.285156 -14.851562 Z M 17.335938 -14.851562 "/></g></g></g><g fill="#e4e2dd" fill-opacity="1"><g transform="translate(1171.512252, 102.855015)"><g><path d="M 27.78125 -18.628906 L 22.816406 -18.628906 L 20.113281 -3.726562 L 17.765625 -18.359375 L 10.800781 -18.359375 L 8.34375 -3.78125 L 5.859375 -18.628906 L 0.703125 -18.628906 L 5.183594 0 L 11.691406 0 L 14.203125 -14.5 L 16.550781 0 L 23.03125 0 Z M 27.78125 -18.628906 "/></g></g></g><g fill="#e4e2dd" fill-opacity="1"><g transform="translate(1228.44218, 102.855015)"><g><path d="M 17.335938 -14.851562 L 17.335938 -18.628906 L 0.378906 -18.628906 L 0.378906 -14.851562 L 6.425781 -14.851562 L 6.425781 0 L 11.285156 0 L 11.285156 -14.851562 Z M 17.335938 -14.851562 "/></g></g></g><g fill="#e4e2dd" fill-opacity="1"><g transform="translate(1282.422476, 102.855015)"><g><path d="M 7.019531 -14.851562 L 16.171875 -14.851562 L 16.171875 -18.628906 L 2.160156 -18.628906 L 2.160156 0 L 7.019531 0 L 7.019531 -7.453125 L 15.363281 -7.453125 L 15.363281 -11.230469 L 7.019531 -11.230469 Z M 7.019531 -14.851562 "/></g></g></g><g fill="#e4e2dd" fill-opacity="1"><g transform="translate(1336.074323, 102.855015)"><g><path d="M 8.695312 -19.007812 C 4.996094 -19.007812 1.648438 -16.984375 1.648438 -13.390625 C 1.648438 -9.664062 4.132812 -8.34375 8.371094 -7.289062 C 10.664062 -6.722656 11.367188 -5.886719 11.367188 -4.914062 C 11.367188 -3.886719 10.339844 -3.1875 8.992188 -3.1875 C 7.53125 -3.1875 6.101562 -3.941406 5.777344 -5.695312 L 0.917969 -5.695312 C 1.214844 -1.511719 4.402344 0.378906 9.125 0.378906 C 12.878906 0.378906 16.441406 -1.511719 16.441406 -5.238281 C 16.441406 -8.101562 14.769531 -10.152344 10.664062 -11.125 C 7.585938 -11.851562 6.722656 -12.582031 6.722656 -13.769531 C 6.722656 -14.902344 7.480469 -15.445312 8.585938 -15.445312 C 10.179688 -15.445312 10.988281 -14.417969 11.203125 -12.878906 L 16.066406 -12.878906 C 15.660156 -16.335938 13.609375 -19.007812 8.695312 -19.007812 Z M 8.695312 -19.007812 "/></g></g></g><g fill="#e4e2dd" fill-opacity="1"><g transform="translate(1220.694082, 212.840928)"><g><path d="M 13.714844 -18.628906 L 11.609375 -18.628906 C 10.234375 -18.628906 8.992188 -18.253906 7.804688 -17.578125 L 3.1875 -14.929688 L 3.1875 -10.585938 L 8.855469 -13.554688 L 8.855469 0 L 13.714844 0 Z M 13.714844 -18.628906 "/></g></g></g><g fill="#e4e2dd" fill-opacity="1"><g transform="translate(1236.219093, 212.840928)"><g><path d="M 8.800781 -19.007812 C 4.914062 -19.007812 1.324219 -16.660156 1.324219 -12.070312 C 1.324219 -8.882812 3.160156 -6.15625 7.398438 -6.15625 C 8.695312 -6.15625 9.664062 -6.34375 10.664062 -7.128906 L 11.527344 -8.800781 C 11.394531 -4.914062 10.421875 -3.1875 8.613281 -3.1875 C 7.371094 -3.1875 6.695312 -3.726562 6.425781 -5.023438 L 6.371094 -5.292969 L 1.511719 -5.292969 L 1.539062 -5.023438 C 1.863281 -1.699219 4.078125 0.378906 8.34375 0.378906 C 13.3125 0.378906 16.414062 -3.238281 16.414062 -9.664062 C 16.414062 -16.117188 13.878906 -19.007812 8.800781 -19.007812 Z M 8.910156 -9.71875 C 7.316406 -9.71875 6.398438 -10.855469 6.398438 -12.664062 C 6.398438 -14.121094 7.210938 -15.445312 8.855469 -15.445312 C 10.394531 -15.445312 11.339844 -14.308594 11.339844 -12.554688 C 11.339844 -10.746094 10.234375 -9.71875 8.910156 -9.71875 Z M 8.910156 -9.71875 "/></g></g></g><g fill="#e4e2dd" fill-opacity="1"><g transform="translate(1220.694082, 249.499695)"><g><path d="M 9.152344 -3.78125 L 11.636719 -6.183594 C 15.226562 -9.640625 16.226562 -11.3125 16.226562 -13.5 C 16.226562 -16.984375 13.796875 -19.0625 9.449219 -19.0625 C 4.886719 -19.0625 2.296875 -16.765625 1.890625 -12.664062 L 1.863281 -12.394531 L 6.722656 -12.394531 L 6.75 -12.664062 C 6.9375 -14.605469 7.640625 -15.496094 9.046875 -15.496094 C 10.367188 -15.496094 11.152344 -14.714844 11.152344 -13.3125 C 11.152344 -11.527344 10.207031 -10.234375 7.425781 -7.613281 L 1.566406 -2.105469 L 1.566406 0 L 16.011719 0 L 16.011719 -3.78125 Z M 9.152344 -3.78125 "/></g></g></g><g fill="#e4e2dd" fill-opacity="1"><g transform="translate(1236.219093, 249.499695)"><g><path d="M 10.476562 -12.472656 C 9.179688 -12.472656 8.207031 -12.285156 7.210938 -11.503906 L 6.34375 -9.828125 C 6.480469 -13.714844 7.453125 -15.445312 9.261719 -15.445312 C 10.394531 -15.445312 11.070312 -14.902344 11.449219 -13.609375 L 11.503906 -13.339844 L 16.363281 -13.339844 L 16.335938 -13.609375 C 15.902344 -16.929688 13.6875 -19.007812 9.53125 -19.007812 C 4.671875 -19.007812 1.457031 -15.390625 1.457031 -8.964844 C 1.457031 -2.511719 3.996094 0.378906 9.070312 0.378906 C 12.960938 0.378906 16.550781 -1.972656 16.550781 -6.5625 C 16.550781 -9.746094 14.714844 -12.472656 10.476562 -12.472656 Z M 9.019531 -3.1875 C 7.480469 -3.1875 6.535156 -4.320312 6.535156 -6.074219 C 6.535156 -7.882812 7.640625 -8.910156 8.964844 -8.910156 C 10.558594 -8.910156 11.476562 -7.777344 11.476562 -5.96875 C 11.476562 -4.507812 10.664062 -3.1875 9.019531 -3.1875 Z M 9.019531 -3.1875 "/></g></g></g><g fill="#e4e2dd" fill-opacity="1"><g transform="translate(1274.335846, 212.840928)"><g><path d="M 9.152344 -3.78125 L 11.636719 -6.183594 C 15.226562 -9.640625 16.226562 -11.3125 16.226562 -13.5 C 16.226562 -16.984375 13.796875 -19.0625 9.449219 -19.0625 C 4.886719 -19.0625 2.296875 -16.765625 1.890625 -12.664062 L 1.863281 -12.394531 L 6.722656 -12.394531 L 6.75 -12.664062 C 6.9375 -14.605469 7.640625 -15.496094 9.046875 -15.496094 C 10.367188 -15.496094 11.152344 -14.714844 11.152344 -13.3125 C 11.152344 -11.527344 10.207031 -10.234375 7.425781 -7.613281 L 1.566406 -2.105469 L 1.566406 0 L 16.011719 0 L 16.011719 -3.78125 Z M 9.152344 -3.78125 "/></g></g></g><g fill="#e4e2dd" fill-opacity="1"><g transform="translate(1289.860857, 212.840928)"><g><path d="M 8.9375 -19.007812 C 3.535156 -19.007812 1.242188 -15.550781 1.242188 -9.316406 C 1.242188 -3.105469 3.535156 0.378906 8.9375 0.378906 C 14.335938 0.378906 16.632812 -3.105469 16.632812 -9.316406 C 16.632812 -15.550781 14.335938 -19.007812 8.9375 -19.007812 Z M 8.9375 -3.1875 C 7.234375 -3.1875 6.316406 -4.726562 6.316406 -9.316406 C 6.316406 -13.933594 7.234375 -15.445312 8.9375 -15.445312 C 10.636719 -15.445312 11.554688 -13.933594 11.554688 -9.316406 C 11.554688 -4.726562 10.636719 -3.1875 8.9375 -3.1875 Z M 8.9375 -3.1875 "/></g></g></g><g fill="#e4e2dd" fill-opacity="1"><g transform="translate(1274.335846, 249.499695)"><g><path d="M 9.152344 -3.78125 L 11.636719 -6.183594 C 15.226562 -9.640625 16.226562 -11.3125 16.226562 -13.5 C 16.226562 -16.984375 13.796875 -19.0625 9.449219 -19.0625 C 4.886719 -19.0625 2.296875 -16.765625 1.890625 -12.664062 L 1.863281 -12.394531 L 6.722656 -12.394531 L 6.75 -12.664062 C 6.9375 -14.605469 7.640625 -15.496094 9.046875 -15.496094 C 10.367188 -15.496094 11.152344 -14.714844 11.152344 -13.3125 C 11.152344 -11.527344 10.207031 -10.234375 7.425781 -7.613281 L 1.566406 -2.105469 L 1.566406 0 L 16.011719 0 L 16.011719 -3.78125 Z M 9.152344 -3.78125 "/></g></g></g><g fill="#e4e2dd" fill-opacity="1"><g transform="translate(1289.860857, 249.499695)"><g><path d="M 16.6875 -18.628906 L 1.539062 -18.628906 L 1.539062 -14.851562 L 10.933594 -14.851562 L 2.726562 0 L 8.046875 0 L 16.6875 -15.929688 Z M 16.6875 -18.628906 "/></g></g></g><g fill="#e4e2dd" fill-opacity="1"><g transform="translate(1168.543068, 212.840928)"><g><path d="M 13.714844 -18.628906 L 11.609375 -18.628906 C 10.234375 -18.628906 8.992188 -18.253906 7.804688 -17.578125 L 3.1875 -14.929688 L 3.1875 -10.585938 L 8.855469 -13.554688 L 8.855469 0 L 13.714844 0 Z M 13.714844 -18.628906 "/></g></g></g><g fill="#e4e2dd" fill-opacity="1"><g transform="translate(1184.068079, 212.840928)"><g><path d="M 12.960938 -9.882812 C 14.578125 -10.394531 16.066406 -11.476562 16.066406 -13.742188 C 16.066406 -16.820312 13.660156 -19.007812 9.207031 -19.007812 C 4.753906 -19.007812 2.296875 -16.820312 2.296875 -13.742188 C 2.296875 -11.503906 3.457031 -10.394531 4.941406 -9.882812 C 3.105469 -9.234375 1.378906 -7.804688 1.378906 -5.292969 C 1.378906 -1.242188 4.265625 0.40625 8.882812 0.40625 C 13.230469 0.40625 16.496094 -1.242188 16.496094 -5.292969 C 16.496094 -7.828125 14.796875 -9.261719 12.960938 -9.882812 Z M 9.125 -15.445312 C 10.3125 -15.445312 11.125 -14.769531 11.125 -13.527344 C 11.125 -12.175781 10.234375 -11.503906 9.097656 -11.503906 C 7.992188 -11.503906 7.234375 -12.175781 7.234375 -13.527344 C 7.234375 -14.769531 8.074219 -15.445312 9.125 -15.445312 Z M 8.9375 -3.160156 C 7.34375 -3.160156 6.398438 -4.023438 6.398438 -5.5625 C 6.398438 -7.128906 7.53125 -8.019531 8.910156 -8.019531 C 10.53125 -8.019531 11.476562 -7.046875 11.476562 -5.480469 C 11.476562 -4.050781 10.71875 -3.160156 8.9375 -3.160156 Z M 8.9375 -3.160156 "/></g></g></g><g fill="#e4e2dd" fill-opacity="1"><g transform="translate(1168.543068, 249.499695)"><g><path d="M 9.152344 -3.78125 L 11.636719 -6.183594 C 15.226562 -9.640625 16.226562 -11.3125 16.226562 -13.5 C 16.226562 -16.984375 13.796875 -19.0625 9.449219 -19.0625 C 4.886719 -19.0625 2.296875 -16.765625 1.890625 -12.664062 L 1.863281 -12.394531 L 6.722656 -12.394531 L 6.75 -12.664062 C 6.9375 -14.605469 7.640625 -15.496094 9.046875 -15.496094 C 10.367188 -15.496094 11.152344 -14.714844 11.152344 -13.3125 C 11.152344 -11.527344 10.207031 -10.234375 7.425781 -7.613281 L 1.566406 -2.105469 L 1.566406 0 L 16.011719 0 L 16.011719 -3.78125 Z M 9.152344 -3.78125 "/></g></g></g><g fill="#e4e2dd" fill-opacity="1"><g transform="translate(1184.068079, 249.499695)"><g><path d="M 10.234375 -12.691406 C 9.207031 -12.691406 8.207031 -12.5 7.34375 -12.015625 L 6.640625 -10.773438 L 7.234375 -14.851562 L 15.660156 -14.851562 L 15.660156 -18.628906 L 3.238281 -18.628906 L 1.863281 -7.453125 L 6.34375 -7.453125 C 6.777344 -8.585938 7.480469 -9.125 8.722656 -9.125 C 10.394531 -9.125 11.3125 -7.855469 11.3125 -6.15625 C 11.3125 -4.480469 10.449219 -3.1875 8.640625 -3.1875 C 7.316406 -3.1875 6.5625 -3.96875 6.425781 -5.238281 L 6.398438 -5.507812 L 1.539062 -5.507812 L 1.566406 -5.238281 C 1.972656 -1.269531 4.480469 0.378906 8.964844 0.378906 C 12.796875 0.378906 16.390625 -1.917969 16.390625 -6.289062 C 16.390625 -10.367188 13.960938 -12.691406 10.234375 -12.691406 Z M 10.234375 -12.691406 "/></g></g></g><g fill="#e4e2dd" fill-opacity="1"><g transform="translate(1115.235889, 176.176768)"><g><path d="M 13.714844 -18.628906 L 11.609375 -18.628906 C 10.234375 -18.628906 8.992188 -18.253906 7.804688 -17.578125 L 3.1875 -14.929688 L 3.1875 -10.585938 L 8.855469 -13.554688 L 8.855469 0 L 13.714844 0 Z M 13.714844 -18.628906 "/></g></g></g><g fill="#e4e2dd" fill-opacity="1"><g transform="translate(1130.7609, 176.176768)"><g><path d="M 8.9375 -19.007812 C 3.535156 -19.007812 1.242188 -15.550781 1.242188 -9.316406 C 1.242188 -3.105469 3.535156 0.378906 8.9375 0.378906 C 14.335938 0.378906 16.632812 -3.105469 16.632812 -9.316406 C 16.632812 -15.550781 14.335938 -19.007812 8.9375 -19.007812 Z M 8.9375 -3.1875 C 7.234375 -3.1875 6.316406 -4.726562 6.316406 -9.316406 C 6.316406 -13.933594 7.234375 -15.445312 8.9375 -15.445312 C 10.636719 -15.445312 11.554688 -13.933594 11.554688 -9.316406 C 11.554688 -4.726562 10.636719 -3.1875 8.9375 -3.1875 Z M 8.9375 -3.1875 "/></g></g></g><g fill="#e4e2dd" fill-opacity="1"><g transform="translate(1121.493701, 139.528775)"><g><path d="M 12.421875 -9.800781 C 14.851562 -10.394531 15.957031 -11.851562 15.957031 -14.039062 C 15.957031 -16.6875 13.851562 -19.007812 9.289062 -19.007812 C 4.453125 -19.007812 2.132812 -16.199219 1.808594 -13.066406 L 1.78125 -12.796875 L 6.640625 -12.796875 L 6.667969 -13.066406 C 6.777344 -14.28125 7.371094 -15.445312 8.800781 -15.445312 C 10.152344 -15.445312 10.882812 -14.6875 10.882812 -13.472656 C 10.882812 -12.203125 9.988281 -11.230469 8.207031 -11.097656 L 7.480469 -11.042969 L 7.480469 -7.910156 L 8.207031 -7.882812 C 10.152344 -7.804688 11.3125 -6.992188 11.3125 -5.398438 C 11.3125 -4.132812 10.261719 -3.1875 8.585938 -3.1875 C 6.992188 -3.1875 6.074219 -4.347656 5.804688 -5.644531 L 5.75 -5.914062 L 0.890625 -5.914062 L 0.917969 -5.644531 C 1.296875 -1.917969 4.050781 0.378906 8.773438 0.378906 C 13.472656 0.378906 16.390625 -1.972656 16.390625 -5.535156 C 16.390625 -7.9375 15.066406 -9.289062 12.421875 -9.800781 Z M 12.421875 -9.800781 "/></g></g></g><g fill="#e4e2dd" fill-opacity="1"><g transform="translate(1070.893654, 176.176768)"><g><path d="M 8.800781 -19.007812 C 4.914062 -19.007812 1.324219 -16.660156 1.324219 -12.070312 C 1.324219 -8.882812 3.160156 -6.15625 7.398438 -6.15625 C 8.695312 -6.15625 9.664062 -6.34375 10.664062 -7.128906 L 11.527344 -8.800781 C 11.394531 -4.914062 10.421875 -3.1875 8.613281 -3.1875 C 7.371094 -3.1875 6.695312 -3.726562 6.425781 -5.023438 L 6.371094 -5.292969 L 1.511719 -5.292969 L 1.539062 -5.023438 C 1.863281 -1.699219 4.078125 0.378906 8.34375 0.378906 C 13.3125 0.378906 16.414062 -3.238281 16.414062 -9.664062 C 16.414062 -16.117188 13.878906 -19.007812 8.800781 -19.007812 Z M 8.910156 -9.71875 C 7.316406 -9.71875 6.398438 -10.855469 6.398438 -12.664062 C 6.398438 -14.121094 7.210938 -15.445312 8.855469 -15.445312 C 10.394531 -15.445312 11.339844 -14.308594 11.339844 -12.554688 C 11.339844 -10.746094 10.234375 -9.71875 8.910156 -9.71875 Z M 8.910156 -9.71875 "/></g></g></g><g fill="#e4e2dd" fill-opacity="1"><g transform="translate(1069.393654, 139.528775)"><g><path d="M 9.152344 -3.78125 L 11.636719 -6.183594 C 15.226562 -9.640625 16.226562 -11.3125 16.226562 -13.5 C 16.226562 -16.984375 13.796875 -19.0625 9.449219 -19.0625 C 4.886719 -19.0625 2.296875 -16.765625 1.890625 -12.664062 L 1.863281 -12.394531 L 6.722656 -12.394531 L 6.75 -12.664062 C 6.9375 -14.605469 7.640625 -15.496094 9.046875 -15.496094 C 10.367188 -15.496094 11.152344 -14.714844 11.152344 -13.3125 C 11.152344 -11.527344 10.207031 -10.234375 7.425781 -7.613281 L 1.566406 -2.105469 L 1.566406 0 L 16.011719 0 L 16.011719 -3.78125 Z M 9.152344 -3.78125 "/></g></g></g><g fill="#e4e2dd" fill-opacity="1"><g transform="translate(1017.783698, 176.176768)"><g><path d="M 12.960938 -9.882812 C 14.578125 -10.394531 16.066406 -11.476562 16.066406 -13.742188 C 16.066406 -16.820312 13.660156 -19.007812 9.207031 -19.007812 C 4.753906 -19.007812 2.296875 -16.820312 2.296875 -13.742188 C 2.296875 -11.503906 3.457031 -10.394531 4.941406 -9.882812 C 3.105469 -9.234375 1.378906 -7.804688 1.378906 -5.292969 C 1.378906 -1.242188 4.265625 0.40625 8.882812 0.40625 C 13.230469 0.40625 16.496094 -1.242188 16.496094 -5.292969 C 16.496094 -7.828125 14.796875 -9.261719 12.960938 -9.882812 Z M 9.125 -15.445312 C 10.3125 -15.445312 11.125 -14.769531 11.125 -13.527344 C 11.125 -12.175781 10.234375 -11.503906 9.097656 -11.503906 C 7.992188 -11.503906 7.234375 -12.175781 7.234375 -13.527344 C 7.234375 -14.769531 8.074219 -15.445312 9.125 -15.445312 Z M 8.9375 -3.160156 C 7.34375 -3.160156 6.398438 -4.023438 6.398438 -5.5625 C 6.398438 -7.128906 7.53125 -8.019531 8.910156 -8.019531 C 10.53125 -8.019531 11.476562 -7.046875 11.476562 -5.480469 C 11.476562 -4.050781 10.71875 -3.160156 8.9375 -3.160156 Z M 8.9375 -3.160156 "/></g></g></g><g fill="#e4e2dd" fill-opacity="1"><g transform="translate(1016.283698, 139.528775)"><g><path d="M 13.714844 -18.628906 L 11.609375 -18.628906 C 10.234375 -18.628906 8.992188 -18.253906 7.804688 -17.578125 L 3.1875 -14.929688 L 3.1875 -10.585938 L 8.855469 -13.554688 L 8.855469 0 L 13.714844 0 Z M 13.714844 -18.628906 "/></g></g></g><g fill="#e4e2dd" fill-opacity="1"><g transform="translate(1220.46476, 176.176768)"><g><path d="M 13.714844 -18.628906 L 11.609375 -18.628906 C 10.234375 -18.628906 8.992188 -18.253906 7.804688 -17.578125 L 3.1875 -14.929688 L 3.1875 -10.585938 L 8.855469 -13.554688 L 8.855469 0 L 13.714844 0 Z M 13.714844 -18.628906 "/></g></g></g><g fill="#e4e2dd" fill-opacity="1"><g transform="translate(1235.989771, 176.176768)"><g><path d="M 9.152344 -3.78125 L 11.636719 -6.183594 C 15.226562 -9.640625 16.226562 -11.3125 16.226562 -13.5 C 16.226562 -16.984375 13.796875 -19.0625 9.449219 -19.0625 C 4.886719 -19.0625 2.296875 -16.765625 1.890625 -12.664062 L 1.863281 -12.394531 L 6.722656 -12.394531 L 6.75 -12.664062 C 6.9375 -14.605469 7.640625 -15.496094 9.046875 -15.496094 C 10.367188 -15.496094 11.152344 -14.714844 11.152344 -13.3125 C 11.152344 -11.527344 10.207031 -10.234375 7.425781 -7.613281 L 1.566406 -2.105469 L 1.566406 0 L 16.011719 0 L 16.011719 -3.78125 Z M 9.152344 -3.78125 "/></g></g></g><g fill="#e4e2dd" fill-opacity="1"><g transform="translate(1226.722572, 139.528775)"><g><path d="M 10.234375 -12.691406 C 9.207031 -12.691406 8.207031 -12.5 7.34375 -12.015625 L 6.640625 -10.773438 L 7.234375 -14.851562 L 15.660156 -14.851562 L 15.660156 -18.628906 L 3.238281 -18.628906 L 1.863281 -7.453125 L 6.34375 -7.453125 C 6.777344 -8.585938 7.480469 -9.125 8.722656 -9.125 C 10.394531 -9.125 11.3125 -7.855469 11.3125 -6.15625 C 11.3125 -4.480469 10.449219 -3.1875 8.640625 -3.1875 C 7.316406 -3.1875 6.5625 -3.96875 6.425781 -5.238281 L 6.398438 -5.507812 L 1.539062 -5.507812 L 1.566406 -5.238281 C 1.972656 -1.269531 4.480469 0.378906 8.964844 0.378906 C 12.796875 0.378906 16.390625 -1.917969 16.390625 -6.289062 C 16.390625 -10.367188 13.960938 -12.691406 10.234375 -12.691406 Z M 10.234375 -12.691406 "/></g></g></g><g fill="#e4e2dd" fill-opacity="1"><g transform="translate(1274.094901, 176.176768)"><g><path d="M 13.714844 -18.628906 L 11.609375 -18.628906 C 10.234375 -18.628906 8.992188 -18.253906 7.804688 -17.578125 L 3.1875 -14.929688 L 3.1875 -10.585938 L 8.855469 -13.554688 L 8.855469 0 L 13.714844 0 Z M 13.714844 -18.628906 "/></g></g></g><g fill="#e4e2dd" fill-opacity="1"><g transform="translate(1289.619912, 176.176768)"><g><path d="M 12.421875 -9.800781 C 14.851562 -10.394531 15.957031 -11.851562 15.957031 -14.039062 C 15.957031 -16.6875 13.851562 -19.007812 9.289062 -19.007812 C 4.453125 -19.007812 2.132812 -16.199219 1.808594 -13.066406 L 1.78125 -12.796875 L 6.640625 -12.796875 L 6.667969 -13.066406 C 6.777344 -14.28125 7.371094 -15.445312 8.800781 -15.445312 C 10.152344 -15.445312 10.882812 -14.6875 10.882812 -13.472656 C 10.882812 -12.203125 9.988281 -11.230469 8.207031 -11.097656 L 7.480469 -11.042969 L 7.480469 -7.910156 L 8.207031 -7.882812 C 10.152344 -7.804688 11.3125 -6.992188 11.3125 -5.398438 C 11.3125 -4.132812 10.261719 -3.1875 8.585938 -3.1875 C 6.992188 -3.1875 6.074219 -4.347656 5.804688 -5.644531 L 5.75 -5.914062 L 0.890625 -5.914062 L 0.917969 -5.644531 C 1.296875 -1.917969 4.050781 0.378906 8.773438 0.378906 C 13.472656 0.378906 16.390625 -1.972656 16.390625 -5.535156 C 16.390625 -7.9375 15.066406 -9.289062 12.421875 -9.800781 Z M 12.421875 -9.800781 "/></g></g></g><g fill="#e4e2dd" fill-opacity="1"><g transform="translate(1281.905444, 139.512625)"><g><path d="M 10.476562 -12.472656 C 9.179688 -12.472656 8.207031 -12.285156 7.210938 -11.503906 L 6.34375 -9.828125 C 6.480469 -13.714844 7.453125 -15.445312 9.261719 -15.445312 C 10.394531 -15.445312 11.070312 -14.902344 11.449219 -13.609375 L 11.503906 -13.339844 L 16.363281 -13.339844 L 16.335938 -13.609375 C 15.902344 -16.929688 13.6875 -19.007812 9.53125 -19.007812 C 4.671875 -19.007812 1.457031 -15.390625 1.457031 -8.964844 C 1.457031 -2.511719 3.996094 0.378906 9.070312 0.378906 C 12.960938 0.378906 16.550781 -1.972656 16.550781 -6.5625 C 16.550781 -9.746094 14.714844 -12.472656 10.476562 -12.472656 Z M 9.019531 -3.1875 C 7.480469 -3.1875 6.535156 -4.320312 6.535156 -6.074219 C 6.535156 -7.882812 7.640625 -8.910156 8.964844 -8.910156 C 10.558594 -8.910156 11.476562 -7.777344 11.476562 -5.96875 C 11.476562 -4.507812 10.664062 -3.1875 9.019531 -3.1875 Z M 9.019531 -3.1875 "/></g></g></g><g fill="#e4e2dd" fill-opacity="1"><g transform="translate(1168.313866, 176.176768)"><g><path d="M 13.714844 -18.628906 L 11.609375 -18.628906 C 10.234375 -18.628906 8.992188 -18.253906 7.804688 -17.578125 L 3.1875 -14.929688 L 3.1875 -10.585938 L 8.855469 -13.554688 L 8.855469 0 L 13.714844 0 Z M 13.714844 -18.628906 "/></g></g></g><g fill="#e4e2dd" fill-opacity="1"><g transform="translate(1183.838877, 176.176768)"><g><path d="M 13.714844 -18.628906 L 11.609375 -18.628906 C 10.234375 -18.628906 8.992188 -18.253906 7.804688 -17.578125 L 3.1875 -14.929688 L 3.1875 -10.585938 L 8.855469 -13.554688 L 8.855469 0 L 13.714844 0 Z M 13.714844 -18.628906 "/></g></g></g><g fill="#e4e2dd" fill-opacity="1"><g transform="translate(1174.571678, 139.528775)"><g><path d="M 16.902344 -4.15625 L 16.902344 -7.9375 L 14.632812 -7.9375 L 14.632812 -18.628906 L 9.34375 -18.628906 L 1.027344 -6.832031 L 1.027344 -4.15625 L 9.773438 -4.15625 L 9.773438 0 L 14.632812 0 L 14.632812 -4.15625 Z M 9.773438 -7.9375 L 6.019531 -7.9375 L 8.773438 -11.851562 C 9.070312 -12.257812 9.394531 -12.824219 9.773438 -13.5 Z M 9.773438 -7.9375 "/></g></g></g></svg>