<svg xmlns="http://www.w3.org/2000/svg" xmlns:xlink="http://www.w3.org/1999/xlink" width="1080" zoomAndPan="magnify" viewBox="0 0 810 809.999993" height="1080" preserveAspectRatio="xMidYMid meet" version="1.0"><defs><filter x="0%" y="0%" width="100%" height="100%" id="6cdf5c3b2e"><feColorMatrix values="0 0 0 0 1 0 0 0 0 1 0 0 0 0 1 0 0 0 1 0" color-interpolation-filters="sRGB"/></filter><g/><mask id="3fa890f48e"><g filter="url(#6cdf5c3b2e)"><rect x="-81" width="972" fill="#000000" y="-80.999999" height="971.999992" fill-opacity="0.85"/></g></mask><clipPath id="e40b2027f6"><path d="M 0.375 1 L 405.625 1 L 405.625 420.695312 L 0.375 420.695312 Z M 0.375 1 " clip-rule="nonzero"/></clipPath><clipPath id="c1f6fc8da7"><path d="M 376.652344 420.695312 L 29.347656 420.695312 C 13.382812 420.695312 0.375 407.691406 0.375 391.726562 L 0.375 29.972656 C 0.375 14.007812 13.382812 1 29.347656 1 L 376.652344 1 C 392.617188 1 405.625 14.007812 405.625 29.972656 L 405.625 391.726562 C 405.625 407.691406 392.617188 420.695312 376.652344 420.695312 Z M 376.652344 420.695312 " clip-rule="nonzero"/></clipPath><clipPath id="3efd343105"><rect x="0" width="406" y="0" height="421"/></clipPath><mask id="b76d4d0290"><g filter="url(#6cdf5c3b2e)"><rect x="-81" width="972" fill="#000000" y="-80.999999" height="971.999992" fill-opacity="0.15"/></g></mask><clipPath id="8ec4814958"><rect x="0" width="360" y="0" height="5"/></clipPath><clipPath id="18b4264cb1"><path d="M 330.460938 413.019531 L 375.414062 413.019531 L 375.414062 457.972656 L 330.460938 457.972656 Z M 330.460938 413.019531 " clip-rule="nonzero"/></clipPath><clipPath id="e60f267a81"><path d="M 352.9375 413.019531 C 340.523438 413.019531 330.460938 423.082031 330.460938 435.496094 C 330.460938 447.910156 340.523438 457.972656 352.9375 457.972656 C 365.351562 457.972656 375.414062 447.910156 375.414062 435.496094 C 375.414062 423.082031 365.351562 413.019531 352.9375 413.019531 Z M 352.9375 413.019531 " clip-rule="nonzero"/></clipPath><mask id="2123948aa8"><g filter="url(#6cdf5c3b2e)"><rect x="-81" width="972" fill="#000000" y="-80.999999" height="971.999992" fill-opacity="0.35"/></g></mask><clipPath id="61a6282eeb"><rect x="0" width="28" y="0" height="27"/></clipPath><mask id="85bf927cce"><g filter="url(#6cdf5c3b2e)"><rect x="-81" width="972" fill="#000000" y="-80.999999" height="971.999992" fill-opacity="0.35"/></g></mask><clipPath id="4406ba05b8"><rect x="0" width="28" y="0" height="27"/></clipPath><mask id="ea8d7e82e2"><g filter="url(#6cdf5c3b2e)"><rect x="-81" width="972" fill="#000000" y="-80.999999" height="971.999992" fill-opacity="0.35"/></g></mask><clipPath id="a741b7d039"><rect x="0" width="28" y="0" height="27"/></clipPath><clipPath id="11925bf37f"><path d="M 538.710938 309.484375 L 583.660156 309.484375 L 583.660156 354.433594 L 538.710938 354.433594 Z M 538.710938 309.484375 " clip-rule="nonzero"/></clipPath><clipPath id="0e64c8631d"><path d="M 561.1875 309.484375 C 548.773438 309.484375 538.710938 319.546875 538.710938 331.960938 C 538.710938 344.371094 548.773438 354.433594 561.1875 354.433594 C 573.597656 354.433594 583.660156 344.371094 583.660156 331.960938 C 583.660156 319.546875 573.597656 309.484375 561.1875 309.484375 Z M 561.1875 309.484375 " clip-rule="nonzero"/></clipPath><mask id="5ce94373d1"><g filter="url(#6cdf5c3b2e)"><rect x="-81" width="972" fill="#000000" y="-80.999999" height="971.999992" fill-opacity="0.35"/></g></mask><clipPath id="b334155c03"><rect x="0" width="14" y="0" height="27"/></clipPath><mask id="149506cf14"><g filter="url(#6cdf5c3b2e)"><rect x="-81" width="972" fill="#000000" y="-80.999999" height="971.999992" fill-opacity="0.35"/></g></mask><clipPath id="0f323f7399"><rect x="0" width="14" y="0" height="27"/></clipPath></defs><g mask="url(#3fa890f48e)"><g transform="matrix(1, 0, 0, 1, 202, 105)"><g clip-path="url(#3efd343105)"><g clip-path="url(#e40b2027f6)"><g clip-path="url(#c1f6fc8da7)"><path fill="#ffe9e9" d="M 0.375 1 L 405.625 1 L 405.625 420.695312 L 0.375 420.695312 Z M 0.375 1 " fill-opacity="1" fill-rule="nonzero"/></g></g></g></g></g><g mask="url(#b76d4d0290)"><g transform="matrix(1, 0, 0, 1, 225, 182)"><g clip-path="url(#8ec4814958)"><path stroke-linecap="round" transform="matrix(0.750421, 0, 0, 0.75, 2.348166, 2.4915)" fill="none" stroke-linejoin="miter" d="M 0.499041 0.500917 L 473.239175 0.500917 " stroke="#000000" stroke-width="1" stroke-opacity="1" stroke-miterlimit="4"/></g></g></g><g clip-path="url(#18b4264cb1)"><g clip-path="url(#e60f267a81)"><path fill="#3e5230" d="M 330.460938 413.019531 L 375.414062 413.019531 L 375.414062 457.972656 L 330.460938 457.972656 Z M 330.460938 413.019531 " fill-opacity="1" fill-rule="nonzero"/></g></g><g fill="#000000" fill-opacity="1"><g transform="translate(346.473618, 154.971135)"><g><path d="M 14.90625 0 L 13.203125 -4.015625 L 4.84375 -4.015625 L 3.125 0 L 0 0 L 7.734375 -17.09375 L 10.25 -17.09375 L 18 0 Z M 5.875 -6.40625 L 12.171875 -6.40625 L 9.03125 -13.734375 Z M 5.875 -6.40625 "/></g></g></g><g fill="#000000" fill-opacity="1"><g transform="translate(364.473652, 154.971135)"><g><path d="M 8.546875 -12.4375 C 9.585938 -12.4375 10.507812 -12.164062 11.3125 -11.625 C 12.125 -11.09375 12.753906 -10.34375 13.203125 -9.375 C 13.660156 -8.40625 13.890625 -7.296875 13.890625 -6.046875 C 13.890625 -4.796875 13.664062 -3.695312 13.21875 -2.75 C 12.769531 -1.8125 12.140625 -1.085938 11.328125 -0.578125 C 10.523438 -0.0664062 9.597656 0.1875 8.546875 0.1875 C 7.660156 0.1875 6.875 0 6.1875 -0.375 C 5.5 -0.75 4.972656 -1.269531 4.609375 -1.9375 L 4.609375 5.1875 L 1.625 5.1875 L 1.625 -8.6875 C 1.625 -9.96875 1.5625 -11.113281 1.4375 -12.125 L 4.25 -12.125 L 4.484375 -10.03125 C 4.804688 -10.78125 5.328125 -11.367188 6.046875 -11.796875 C 6.765625 -12.222656 7.597656 -12.4375 8.546875 -12.4375 Z M 7.734375 -2.15625 C 8.734375 -2.15625 9.503906 -2.488281 10.046875 -3.15625 C 10.597656 -3.832031 10.875 -4.796875 10.875 -6.046875 C 10.875 -7.304688 10.597656 -8.289062 10.046875 -9 C 9.503906 -9.71875 8.738281 -10.078125 7.75 -10.078125 C 6.726562 -10.078125 5.941406 -9.734375 5.390625 -9.046875 C 4.847656 -8.359375 4.578125 -7.375 4.578125 -6.09375 C 4.578125 -4.832031 4.847656 -3.859375 5.390625 -3.171875 C 5.941406 -2.492188 6.722656 -2.15625 7.734375 -2.15625 Z M 7.734375 -2.15625 "/></g></g></g><g fill="#000000" fill-opacity="1"><g transform="translate(379.353682, 154.971135)"><g><path d="M 8.15625 -12.40625 C 8.625 -12.40625 9.023438 -12.34375 9.359375 -12.21875 L 9.34375 -9.484375 C 8.820312 -9.691406 8.289062 -9.796875 7.75 -9.796875 C 6.726562 -9.796875 5.945312 -9.5 5.40625 -8.90625 C 4.875 -8.3125 4.609375 -7.523438 4.609375 -6.546875 L 4.609375 0 L 1.625 0 L 1.625 -8.6875 C 1.625 -9.96875 1.5625 -11.113281 1.4375 -12.125 L 4.25 -12.125 L 4.484375 -9.984375 C 4.785156 -10.765625 5.265625 -11.363281 5.921875 -11.78125 C 6.578125 -12.195312 7.320312 -12.40625 8.15625 -12.40625 Z M 8.15625 -12.40625 "/></g></g></g><g fill="#000000" fill-opacity="1"><g transform="translate(388.761698, 154.971135)"><g><path d="M 1.625 0 L 1.625 -12.125 L 4.609375 -12.125 L 4.609375 0 Z M 1.4375 -17.625 L 4.78125 -17.625 L 4.78125 -14.671875 L 1.4375 -14.671875 Z M 1.4375 -17.625 "/></g></g></g><g fill="#000000" fill-opacity="1"><g transform="translate(395.025713, 154.971135)"><g><path d="M 1.625 0 L 1.625 -17.65625 L 4.609375 -17.65625 L 4.609375 0 Z M 1.625 0 "/></g></g></g><g fill="#000000" fill-opacity="1"><g transform="translate(401.289728, 154.971135)"><g/></g></g><g fill="#000000" fill-opacity="1"><g transform="translate(407.865743, 154.971135)"><g><path d="M 13.171875 -2.515625 L 13.171875 0 L 1.703125 0 L 1.703125 -2.28125 L 7.515625 -8.546875 C 8.203125 -9.296875 8.703125 -9.984375 9.015625 -10.609375 C 9.335938 -11.234375 9.5 -11.847656 9.5 -12.453125 C 9.5 -13.234375 9.269531 -13.820312 8.8125 -14.21875 C 8.363281 -14.625 7.710938 -14.828125 6.859375 -14.828125 C 5.359375 -14.828125 3.816406 -14.238281 2.234375 -13.0625 L 1.203125 -15.3125 C 1.867188 -15.914062 2.726562 -16.394531 3.78125 -16.75 C 4.84375 -17.113281 5.910156 -17.296875 6.984375 -17.296875 C 8.691406 -17.296875 10.046875 -16.875 11.046875 -16.03125 C 12.046875 -15.195312 12.546875 -14.066406 12.546875 -12.640625 C 12.546875 -11.671875 12.332031 -10.753906 11.90625 -9.890625 C 11.488281 -9.023438 10.785156 -8.054688 9.796875 -6.984375 L 5.59375 -2.515625 Z M 13.171875 -2.515625 "/></g></g></g><g fill="#000000" fill-opacity="1"><g transform="translate(422.289772, 154.971135)"><g><path d="M 7.203125 0.21875 C 5.171875 0.21875 3.617188 -0.523438 2.546875 -2.015625 C 1.484375 -3.515625 0.953125 -5.695312 0.953125 -8.5625 C 0.953125 -11.382812 1.484375 -13.535156 2.546875 -15.015625 C 3.617188 -16.503906 5.171875 -17.25 7.203125 -17.25 C 9.234375 -17.25 10.78125 -16.507812 11.84375 -15.03125 C 12.90625 -13.550781 13.4375 -11.394531 13.4375 -8.5625 C 13.4375 -5.71875 12.90625 -3.539062 11.84375 -2.03125 C 10.78125 -0.53125 9.234375 0.21875 7.203125 0.21875 Z M 7.203125 -2.203125 C 8.304688 -2.203125 9.109375 -2.707031 9.609375 -3.71875 C 10.117188 -4.738281 10.375 -6.351562 10.375 -8.5625 C 10.375 -10.738281 10.117188 -12.328125 9.609375 -13.328125 C 9.109375 -14.328125 8.304688 -14.828125 7.203125 -14.828125 C 6.097656 -14.828125 5.289062 -14.328125 4.78125 -13.328125 C 4.28125 -12.328125 4.03125 -10.738281 4.03125 -8.5625 C 4.03125 -6.351562 4.28125 -4.738281 4.78125 -3.71875 C 5.289062 -2.707031 6.097656 -2.203125 7.203125 -2.203125 Z M 7.203125 -2.203125 "/></g></g></g><g fill="#000000" fill-opacity="1"><g transform="translate(436.689804, 154.971135)"><g><path d="M 13.171875 -2.515625 L 13.171875 0 L 1.703125 0 L 1.703125 -2.28125 L 7.515625 -8.546875 C 8.203125 -9.296875 8.703125 -9.984375 9.015625 -10.609375 C 9.335938 -11.234375 9.5 -11.847656 9.5 -12.453125 C 9.5 -13.234375 9.269531 -13.820312 8.8125 -14.21875 C 8.363281 -14.625 7.710938 -14.828125 6.859375 -14.828125 C 5.359375 -14.828125 3.816406 -14.238281 2.234375 -13.0625 L 1.203125 -15.3125 C 1.867188 -15.914062 2.726562 -16.394531 3.78125 -16.75 C 4.84375 -17.113281 5.910156 -17.296875 6.984375 -17.296875 C 8.691406 -17.296875 10.046875 -16.875 11.046875 -16.03125 C 12.046875 -15.195312 12.546875 -14.066406 12.546875 -12.640625 C 12.546875 -11.671875 12.332031 -10.753906 11.90625 -9.890625 C 11.488281 -9.023438 10.785156 -8.054688 9.796875 -6.984375 L 5.59375 -2.515625 Z M 13.171875 -2.515625 "/></g></g></g><g fill="#000000" fill-opacity="1"><g transform="translate(451.113833, 154.971135)"><g><path d="M 9.5 -2.515625 L 13.21875 -2.515625 L 13.21875 0 L 2.6875 0 L 2.6875 -2.515625 L 6.4375 -2.515625 L 6.4375 -13.53125 L 2.953125 -11.453125 L 2.953125 -14.203125 L 7.703125 -17.09375 L 9.5 -17.09375 Z M 9.5 -2.515625 "/></g></g></g><g fill="#000000" fill-opacity="1"><g transform="translate(239.877677, 235.277967)"><g><path d="M 14.046875 -14.953125 L 16.1875 -14.953125 L 16.1875 0 L 13.796875 0 L 13.796875 -9.28125 L 9.828125 0 L 8.046875 0 L 4.046875 -9.171875 L 4.046875 0 L 1.65625 0 L 1.65625 -14.953125 L 3.796875 -14.953125 L 8.953125 -3.25 Z M 14.046875 -14.953125 "/></g></g></g><g fill="#000000" fill-opacity="1"><g transform="translate(294.36535, 235.277967)"><g><path d="M 5.125 0 L 5.125 -12.71875 L 0.25 -12.71875 L 0.25 -14.953125 L 12.75 -14.953125 L 12.75 -12.71875 L 7.859375 -12.71875 L 7.859375 0 Z M 5.125 0 "/></g></g></g><g fill="#000000" fill-opacity="1"><g transform="translate(341.165494, 235.277967)"><g><path d="M 20.4375 -14.953125 L 23.03125 -14.953125 L 17.75 0 L 15.546875 0 L 11.78125 -10.75 L 7.984375 0 L 5.78125 0 L 0.5 -14.953125 L 3.25 -14.953125 L 7 -3.796875 L 10.875 -14.953125 L 12.8125 -14.953125 L 16.609375 -3.71875 Z M 20.4375 -14.953125 "/></g></g></g><g fill="#000000" fill-opacity="1"><g transform="translate(398.489105, 235.277967)"><g><path d="M 5.125 0 L 5.125 -12.71875 L 0.25 -12.71875 L 0.25 -14.953125 L 12.75 -14.953125 L 12.75 -12.71875 L 7.859375 -12.71875 L 7.859375 0 Z M 5.125 0 "/></g></g></g><g fill="#000000" fill-opacity="1"><g transform="translate(451.043177, 235.277967)"><g><path d="M 1.609375 0 L 1.609375 -14.953125 L 11.375 -14.953125 L 11.375 -12.78125 L 4.3125 -12.78125 L 4.3125 -8.6875 L 10.96875 -8.6875 L 10.96875 -6.515625 L 4.3125 -6.515625 L 4.3125 0 Z M 1.609375 0 "/></g></g></g><g fill="#000000" fill-opacity="1"><g transform="translate(502.355054, 235.277967)"><g><path d="M 6.671875 0.1875 C 5.523438 0.1875 4.453125 0.0351562 3.453125 -0.265625 C 2.453125 -0.578125 1.601562 -1.019531 0.90625 -1.59375 L 1.828125 -3.5625 C 2.554688 -3.019531 3.316406 -2.617188 4.109375 -2.359375 C 4.898438 -2.097656 5.765625 -1.96875 6.703125 -1.96875 C 7.734375 -1.96875 8.53125 -2.148438 9.09375 -2.515625 C 9.664062 -2.878906 9.953125 -3.390625 9.953125 -4.046875 C 9.953125 -4.609375 9.6875 -5.039062 9.15625 -5.34375 C 8.632812 -5.644531 7.773438 -5.925781 6.578125 -6.1875 C 4.703125 -6.59375 3.335938 -7.117188 2.484375 -7.765625 C 1.628906 -8.410156 1.203125 -9.347656 1.203125 -10.578125 C 1.203125 -11.460938 1.4375 -12.25 1.90625 -12.9375 C 2.382812 -13.625 3.0625 -14.160156 3.9375 -14.546875 C 4.8125 -14.941406 5.820312 -15.140625 6.96875 -15.140625 C 8.019531 -15.140625 9.015625 -14.984375 9.953125 -14.671875 C 10.898438 -14.359375 11.675781 -13.921875 12.28125 -13.359375 L 11.375 -11.375 C 10.050781 -12.445312 8.582031 -12.984375 6.96875 -12.984375 C 6 -12.984375 5.234375 -12.78125 4.671875 -12.375 C 4.117188 -11.976562 3.84375 -11.4375 3.84375 -10.75 C 3.84375 -10.164062 4.085938 -9.71875 4.578125 -9.40625 C 5.078125 -9.101562 5.929688 -8.816406 7.140625 -8.546875 C 8.390625 -8.253906 9.40625 -7.9375 10.1875 -7.59375 C 10.96875 -7.25 11.566406 -6.804688 11.984375 -6.265625 C 12.410156 -5.722656 12.625 -5.046875 12.625 -4.234375 C 12.625 -3.335938 12.382812 -2.554688 11.90625 -1.890625 C 11.425781 -1.234375 10.738281 -0.722656 9.84375 -0.359375 C 8.945312 0.00390625 7.890625 0.1875 6.671875 0.1875 Z M 6.671875 0.1875 "/></g></g></g><g fill="#000000" fill-opacity="1"><g transform="translate(554.416908, 235.277967)"><g><path d="M 6.671875 0.1875 C 5.523438 0.1875 4.453125 0.0351562 3.453125 -0.265625 C 2.453125 -0.578125 1.601562 -1.019531 0.90625 -1.59375 L 1.828125 -3.5625 C 2.554688 -3.019531 3.316406 -2.617188 4.109375 -2.359375 C 4.898438 -2.097656 5.765625 -1.96875 6.703125 -1.96875 C 7.734375 -1.96875 8.53125 -2.148438 9.09375 -2.515625 C 9.664062 -2.878906 9.953125 -3.390625 9.953125 -4.046875 C 9.953125 -4.609375 9.6875 -5.039062 9.15625 -5.34375 C 8.632812 -5.644531 7.773438 -5.925781 6.578125 -6.1875 C 4.703125 -6.59375 3.335938 -7.117188 2.484375 -7.765625 C 1.628906 -8.410156 1.203125 -9.347656 1.203125 -10.578125 C 1.203125 -11.460938 1.4375 -12.25 1.90625 -12.9375 C 2.382812 -13.625 3.0625 -14.160156 3.9375 -14.546875 C 4.8125 -14.941406 5.820312 -15.140625 6.96875 -15.140625 C 8.019531 -15.140625 9.015625 -14.984375 9.953125 -14.671875 C 10.898438 -14.359375 11.675781 -13.921875 12.28125 -13.359375 L 11.375 -11.375 C 10.050781 -12.445312 8.582031 -12.984375 6.96875 -12.984375 C 6 -12.984375 5.234375 -12.78125 4.671875 -12.375 C 4.117188 -11.976562 3.84375 -11.4375 3.84375 -10.75 C 3.84375 -10.164062 4.085938 -9.71875 4.578125 -9.40625 C 5.078125 -9.101562 5.929688 -8.816406 7.140625 -8.546875 C 8.390625 -8.253906 9.40625 -7.9375 10.1875 -7.59375 C 10.96875 -7.25 11.566406 -6.804688 11.984375 -6.265625 C 12.410156 -5.722656 12.625 -5.046875 12.625 -4.234375 C 12.625 -3.335938 12.382812 -2.554688 11.90625 -1.890625 C 11.425781 -1.234375 10.738281 -0.722656 9.84375 -0.359375 C 8.945312 0.00390625 7.890625 0.1875 6.671875 0.1875 Z M 6.671875 0.1875 "/></g></g></g><g mask="url(#2123948aa8)"><g transform="matrix(1, 0, 0, 1, 235, 267)"><g clip-path="url(#61a6282eeb)"><g fill="#000000" fill-opacity="1"><g transform="translate(1.209709, 21.160084)"><g><path d="M 11.359375 -1.453125 L 11.359375 0 L 1.75 0 L 1.75 -1.296875 L 6.96875 -7.09375 C 7.664062 -7.882812 8.175781 -8.59375 8.5 -9.21875 C 8.820312 -9.84375 8.984375 -10.472656 8.984375 -11.109375 C 8.984375 -11.929688 8.742188 -12.5625 8.265625 -13 C 7.796875 -13.445312 7.117188 -13.671875 6.234375 -13.671875 C 4.804688 -13.671875 3.394531 -13.097656 2 -11.953125 L 1.34375 -13.265625 C 1.925781 -13.828125 2.664062 -14.273438 3.5625 -14.609375 C 4.457031 -14.953125 5.363281 -15.125 6.28125 -15.125 C 7.65625 -15.125 8.738281 -14.769531 9.53125 -14.0625 C 10.332031 -13.351562 10.734375 -12.394531 10.734375 -11.1875 C 10.734375 -10.332031 10.539062 -9.507812 10.15625 -8.71875 C 9.769531 -7.925781 9.128906 -7.039062 8.234375 -6.0625 L 3.96875 -1.453125 Z M 11.359375 -1.453125 "/></g></g></g><g fill="#000000" fill-opacity="1"><g transform="translate(13.809756, 21.160084)"><g><path d="M 5.84375 -15.125 C 7.644531 -15.125 9.035156 -14.492188 10.015625 -13.234375 C 10.992188 -11.972656 11.484375 -10.179688 11.484375 -7.859375 C 11.484375 -5.316406 10.972656 -3.34375 9.953125 -1.9375 C 8.941406 -0.53125 7.53125 0.171875 5.71875 0.171875 C 4.863281 0.171875 4.023438 0.0078125 3.203125 -0.3125 C 2.378906 -0.632812 1.65625 -1.09375 1.03125 -1.6875 L 1.703125 -3 C 2.410156 -2.394531 3.085938 -1.957031 3.734375 -1.6875 C 4.378906 -1.414062 5.03125 -1.28125 5.6875 -1.28125 C 6.976562 -1.28125 7.976562 -1.851562 8.6875 -3 C 9.394531 -4.144531 9.75 -5.753906 9.75 -7.828125 L 9.75 -8.109375 C 9.425781 -7.328125 8.898438 -6.707031 8.171875 -6.25 C 7.441406 -5.789062 6.609375 -5.5625 5.671875 -5.5625 C 4.765625 -5.5625 3.957031 -5.757812 3.25 -6.15625 C 2.550781 -6.5625 2.003906 -7.125 1.609375 -7.84375 C 1.222656 -8.5625 1.03125 -9.382812 1.03125 -10.3125 C 1.03125 -11.238281 1.234375 -12.0625 1.640625 -12.78125 C 2.054688 -13.507812 2.628906 -14.082031 3.359375 -14.5 C 4.085938 -14.914062 4.914062 -15.125 5.84375 -15.125 Z M 5.9375 -7.015625 C 6.914062 -7.015625 7.710938 -7.320312 8.328125 -7.9375 C 8.953125 -8.550781 9.265625 -9.347656 9.265625 -10.328125 C 9.265625 -11.328125 8.953125 -12.132812 8.328125 -12.75 C 7.710938 -13.363281 6.910156 -13.671875 5.921875 -13.671875 C 4.972656 -13.671875 4.203125 -13.363281 3.609375 -12.75 C 3.023438 -12.144531 2.734375 -11.335938 2.734375 -10.328125 C 2.734375 -9.335938 3.023438 -8.535156 3.609375 -7.921875 C 4.203125 -7.316406 4.976562 -7.015625 5.9375 -7.015625 Z M 5.9375 -7.015625 "/></g></g></g></g></g></g><g mask="url(#85bf927cce)"><g transform="matrix(1, 0, 0, 1, 287, 267)"><g clip-path="url(#4406ba05b8)"><g fill="#000000" fill-opacity="1"><g transform="translate(1.2716, 21.160084)"><g><path d="M 8.359375 -7.6875 C 9.242188 -7.4375 9.914062 -7 10.375 -6.375 C 10.832031 -5.757812 11.0625 -4.984375 11.0625 -4.046875 C 11.0625 -2.742188 10.617188 -1.71875 9.734375 -0.96875 C 8.859375 -0.226562 7.664062 0.140625 6.15625 0.140625 C 5.1875 0.140625 4.253906 -0.015625 3.359375 -0.328125 C 2.472656 -0.648438 1.722656 -1.109375 1.109375 -1.703125 L 1.78125 -3.03125 C 3.164062 -1.875 4.609375 -1.296875 6.109375 -1.296875 C 7.171875 -1.296875 7.976562 -1.535156 8.53125 -2.015625 C 9.082031 -2.492188 9.359375 -3.191406 9.359375 -4.109375 C 9.359375 -5.941406 8.210938 -6.859375 5.921875 -6.859375 L 4.203125 -6.859375 L 4.203125 -8.3125 L 5.59375 -8.3125 C 6.695312 -8.3125 7.539062 -8.554688 8.125 -9.046875 C 8.71875 -9.535156 9.015625 -10.238281 9.015625 -11.15625 C 9.015625 -11.96875 8.769531 -12.585938 8.28125 -13.015625 C 7.800781 -13.453125 7.117188 -13.671875 6.234375 -13.671875 C 4.804688 -13.671875 3.394531 -13.097656 2 -11.953125 L 1.34375 -13.265625 C 1.945312 -13.847656 2.6875 -14.300781 3.5625 -14.625 C 4.4375 -14.957031 5.347656 -15.125 6.296875 -15.125 C 7.640625 -15.125 8.710938 -14.78125 9.515625 -14.09375 C 10.328125 -13.40625 10.734375 -12.476562 10.734375 -11.3125 C 10.734375 -10.457031 10.519531 -9.707031 10.09375 -9.0625 C 9.675781 -8.425781 9.097656 -7.96875 8.359375 -7.6875 Z M 8.359375 -7.6875 "/></g></g></g><g fill="#000000" fill-opacity="1"><g transform="translate(13.871648, 21.160084)"><g><path d="M 6.296875 0.171875 C 4.585938 0.171875 3.289062 -0.472656 2.40625 -1.765625 C 1.519531 -3.066406 1.078125 -4.96875 1.078125 -7.46875 C 1.078125 -9.976562 1.519531 -11.878906 2.40625 -13.171875 C 3.289062 -14.472656 4.585938 -15.125 6.296875 -15.125 C 8.003906 -15.125 9.300781 -14.472656 10.1875 -13.171875 C 11.082031 -11.878906 11.53125 -9.988281 11.53125 -7.5 C 11.53125 -4.988281 11.082031 -3.082031 10.1875 -1.78125 C 9.300781 -0.476562 8.003906 0.171875 6.296875 0.171875 Z M 6.296875 -1.28125 C 7.484375 -1.28125 8.359375 -1.785156 8.921875 -2.796875 C 9.492188 -3.804688 9.78125 -5.375 9.78125 -7.5 C 9.78125 -9.613281 9.5 -11.164062 8.9375 -12.15625 C 8.382812 -13.15625 7.503906 -13.65625 6.296875 -13.65625 C 5.109375 -13.65625 4.226562 -13.15625 3.65625 -12.15625 C 3.09375 -11.164062 2.8125 -9.613281 2.8125 -7.5 C 2.8125 -5.382812 3.09375 -3.816406 3.65625 -2.796875 C 4.226562 -1.785156 5.109375 -1.28125 6.296875 -1.28125 Z M 6.296875 -1.28125 "/></g></g></g></g></g></g><g mask="url(#ea8d7e82e2)"><g transform="matrix(1, 0, 0, 1, 339, 267)"><g clip-path="url(#a741b7d039)"><g fill="#000000" fill-opacity="1"><g transform="translate(1.333463, 21.160084)"><g><path d="M 8.359375 -7.6875 C 9.242188 -7.4375 9.914062 -7 10.375 -6.375 C 10.832031 -5.757812 11.0625 -4.984375 11.0625 -4.046875 C 11.0625 -2.742188 10.617188 -1.71875 9.734375 -0.96875 C 8.859375 -0.226562 7.664062 0.140625 6.15625 0.140625 C 5.1875 0.140625 4.253906 -0.015625 3.359375 -0.328125 C 2.472656 -0.648438 1.722656 -1.109375 1.109375 -1.703125 L 1.78125 -3.03125 C 3.164062 -1.875 4.609375 -1.296875 6.109375 -1.296875 C 7.171875 -1.296875 7.976562 -1.535156 8.53125 -2.015625 C 9.082031 -2.492188 9.359375 -3.191406 9.359375 -4.109375 C 9.359375 -5.941406 8.210938 -6.859375 5.921875 -6.859375 L 4.203125 -6.859375 L 4.203125 -8.3125 L 5.59375 -8.3125 C 6.695312 -8.3125 7.539062 -8.554688 8.125 -9.046875 C 8.71875 -9.535156 9.015625 -10.238281 9.015625 -11.15625 C 9.015625 -11.96875 8.769531 -12.585938 8.28125 -13.015625 C 7.800781 -13.453125 7.117188 -13.671875 6.234375 -13.671875 C 4.804688 -13.671875 3.394531 -13.097656 2 -11.953125 L 1.34375 -13.265625 C 1.945312 -13.847656 2.6875 -14.300781 3.5625 -14.625 C 4.4375 -14.957031 5.347656 -15.125 6.296875 -15.125 C 7.640625 -15.125 8.710938 -14.78125 9.515625 -14.09375 C 10.328125 -13.40625 10.734375 -12.476562 10.734375 -11.3125 C 10.734375 -10.457031 10.519531 -9.707031 10.09375 -9.0625 C 9.675781 -8.425781 9.097656 -7.96875 8.359375 -7.6875 Z M 8.359375 -7.6875 "/></g></g></g><g fill="#000000" fill-opacity="1"><g transform="translate(13.93351, 21.160084)"><g><path d="M 7.734375 -1.453125 L 11.03125 -1.453125 L 11.03125 0 L 2.6875 0 L 2.6875 -1.453125 L 5.984375 -1.453125 L 5.984375 -12.8125 L 2.921875 -10.859375 L 2.921875 -12.515625 L 6.734375 -14.953125 L 7.734375 -14.953125 Z M 7.734375 -1.453125 "/></g></g></g></g></g></g><g fill="#000000" fill-opacity="1"><g transform="translate(398.688323, 288.160083)"><g><path d="M 7.734375 -1.453125 L 11.03125 -1.453125 L 11.03125 0 L 2.6875 0 L 2.6875 -1.453125 L 5.984375 -1.453125 L 5.984375 -12.8125 L 2.921875 -10.859375 L 2.921875 -12.515625 L 6.734375 -14.953125 L 7.734375 -14.953125 Z M 7.734375 -1.453125 "/></g></g></g><g fill="#000000" fill-opacity="1"><g transform="translate(450.750208, 288.160083)"><g><path d="M 11.359375 -1.453125 L 11.359375 0 L 1.75 0 L 1.75 -1.296875 L 6.96875 -7.09375 C 7.664062 -7.882812 8.175781 -8.59375 8.5 -9.21875 C 8.820312 -9.84375 8.984375 -10.472656 8.984375 -11.109375 C 8.984375 -11.929688 8.742188 -12.5625 8.265625 -13 C 7.796875 -13.445312 7.117188 -13.671875 6.234375 -13.671875 C 4.804688 -13.671875 3.394531 -13.097656 2 -11.953125 L 1.34375 -13.265625 C 1.925781 -13.828125 2.664062 -14.273438 3.5625 -14.609375 C 4.457031 -14.953125 5.363281 -15.125 6.28125 -15.125 C 7.65625 -15.125 8.738281 -14.769531 9.53125 -14.0625 C 10.332031 -13.351562 10.734375 -12.394531 10.734375 -11.1875 C 10.734375 -10.332031 10.539062 -9.507812 10.15625 -8.71875 C 9.769531 -7.925781 9.128906 -7.039062 8.234375 -6.0625 L 3.96875 -1.453125 Z M 11.359375 -1.453125 "/></g></g></g><g fill="#000000" fill-opacity="1"><g transform="translate(502.812085, 288.160083)"><g><path d="M 8.359375 -7.6875 C 9.242188 -7.4375 9.914062 -7 10.375 -6.375 C 10.832031 -5.757812 11.0625 -4.984375 11.0625 -4.046875 C 11.0625 -2.742188 10.617188 -1.71875 9.734375 -0.96875 C 8.859375 -0.226562 7.664062 0.140625 6.15625 0.140625 C 5.1875 0.140625 4.253906 -0.015625 3.359375 -0.328125 C 2.472656 -0.648438 1.722656 -1.109375 1.109375 -1.703125 L 1.78125 -3.03125 C 3.164062 -1.875 4.609375 -1.296875 6.109375 -1.296875 C 7.171875 -1.296875 7.976562 -1.535156 8.53125 -2.015625 C 9.082031 -2.492188 9.359375 -3.191406 9.359375 -4.109375 C 9.359375 -5.941406 8.210938 -6.859375 5.921875 -6.859375 L 4.203125 -6.859375 L 4.203125 -8.3125 L 5.59375 -8.3125 C 6.695312 -8.3125 7.539062 -8.554688 8.125 -9.046875 C 8.71875 -9.535156 9.015625 -10.238281 9.015625 -11.15625 C 9.015625 -11.96875 8.769531 -12.585938 8.28125 -13.015625 C 7.800781 -13.453125 7.117188 -13.671875 6.234375 -13.671875 C 4.804688 -13.671875 3.394531 -13.097656 2 -11.953125 L 1.34375 -13.265625 C 1.945312 -13.847656 2.6875 -14.300781 3.5625 -14.625 C 4.4375 -14.957031 5.347656 -15.125 6.296875 -15.125 C 7.640625 -15.125 8.710938 -14.78125 9.515625 -14.09375 C 10.328125 -13.40625 10.734375 -12.476562 10.734375 -11.3125 C 10.734375 -10.457031 10.519531 -9.707031 10.09375 -9.0625 C 9.675781 -8.425781 9.097656 -7.96875 8.359375 -7.6875 Z M 8.359375 -7.6875 "/></g></g></g><g fill="#000000" fill-opacity="1"><g transform="translate(554.873939, 288.160083)"><g><path d="M 11.90625 -4.6875 L 11.90625 -3.25 L 9.640625 -3.25 L 9.640625 0 L 7.921875 0 L 7.921875 -3.25 L 1.03125 -3.25 L 1.03125 -4.5625 L 8.234375 -14.953125 L 9.640625 -14.953125 L 9.640625 -4.6875 Z M 2.8125 -4.6875 L 7.921875 -4.6875 L 7.921875 -12.03125 Z M 2.8125 -4.6875 "/></g></g></g><g fill="#000000" fill-opacity="1"><g transform="translate(242.502677, 339.928011)"><g><path d="M 6.9375 -9.390625 C 7.875 -9.390625 8.691406 -9.1875 9.390625 -8.78125 C 10.097656 -8.382812 10.640625 -7.828125 11.015625 -7.109375 C 11.398438 -6.398438 11.59375 -5.578125 11.59375 -4.640625 C 11.59375 -3.703125 11.382812 -2.867188 10.96875 -2.140625 C 10.5625 -1.410156 9.972656 -0.847656 9.203125 -0.453125 C 8.441406 -0.0546875 7.550781 0.140625 6.53125 0.140625 C 5.625 0.140625 4.726562 -0.0195312 3.84375 -0.34375 C 2.957031 -0.675781 2.210938 -1.128906 1.609375 -1.703125 L 2.265625 -3.03125 C 3.648438 -1.875 5.070312 -1.296875 6.53125 -1.296875 C 7.582031 -1.296875 8.40625 -1.59375 9 -2.1875 C 9.59375 -2.789062 9.890625 -3.601562 9.890625 -4.625 C 9.890625 -5.613281 9.59375 -6.410156 9 -7.015625 C 8.414062 -7.628906 7.632812 -7.9375 6.65625 -7.9375 C 5.226562 -7.9375 4.085938 -7.351562 3.234375 -6.1875 L 2.03125 -6.1875 L 2.03125 -14.953125 L 11 -14.953125 L 11 -13.53125 L 3.765625 -13.53125 L 3.765625 -8.1875 C 4.585938 -8.988281 5.644531 -9.390625 6.9375 -9.390625 Z M 6.9375 -9.390625 "/></g></g></g><g fill="#000000" fill-opacity="1"><g transform="translate(294.564569, 339.928011)"><g><path d="M 6.9375 -9.390625 C 7.84375 -9.390625 8.648438 -9.1875 9.359375 -8.78125 C 10.066406 -8.382812 10.613281 -7.828125 11 -7.109375 C 11.394531 -6.390625 11.59375 -5.566406 11.59375 -4.640625 C 11.59375 -3.710938 11.382812 -2.882812 10.96875 -2.15625 C 10.5625 -1.4375 9.992188 -0.867188 9.265625 -0.453125 C 8.535156 -0.0351562 7.707031 0.171875 6.78125 0.171875 C 4.976562 0.171875 3.585938 -0.457031 2.609375 -1.71875 C 1.628906 -2.976562 1.140625 -4.769531 1.140625 -7.09375 C 1.140625 -8.78125 1.363281 -10.222656 1.8125 -11.421875 C 2.269531 -12.628906 2.925781 -13.546875 3.78125 -14.171875 C 4.644531 -14.804688 5.679688 -15.125 6.890625 -15.125 C 7.753906 -15.125 8.59375 -14.960938 9.40625 -14.640625 C 10.226562 -14.316406 10.953125 -13.859375 11.578125 -13.265625 L 10.921875 -11.953125 C 10.222656 -12.535156 9.550781 -12.96875 8.90625 -13.25 C 8.257812 -13.53125 7.601562 -13.671875 6.9375 -13.671875 C 5.644531 -13.671875 4.640625 -13.097656 3.921875 -11.953125 C 3.210938 -10.804688 2.859375 -9.195312 2.859375 -7.125 L 2.859375 -6.796875 C 3.179688 -7.597656 3.703125 -8.226562 4.421875 -8.6875 C 5.148438 -9.15625 5.988281 -9.390625 6.9375 -9.390625 Z M 6.703125 -1.28125 C 7.648438 -1.28125 8.414062 -1.582031 9 -2.1875 C 9.59375 -2.800781 9.890625 -3.613281 9.890625 -4.625 C 9.890625 -5.613281 9.59375 -6.410156 9 -7.015625 C 8.40625 -7.628906 7.628906 -7.9375 6.671875 -7.9375 C 5.691406 -7.9375 4.894531 -7.628906 4.28125 -7.015625 C 3.664062 -6.398438 3.359375 -5.601562 3.359375 -4.625 C 3.359375 -3.625 3.664062 -2.816406 4.28125 -2.203125 C 4.894531 -1.585938 5.703125 -1.28125 6.703125 -1.28125 Z M 6.703125 -1.28125 "/></g></g></g><g fill="#000000" fill-opacity="1"><g transform="translate(346.626432, 339.928011)"><g><path d="M 1.359375 -14.953125 L 11.234375 -14.953125 L 11.234375 -13.671875 L 4.21875 0 L 2.375 0 L 9.34375 -13.5 L 1.359375 -13.5 Z M 1.359375 -14.953125 "/></g></g></g><g fill="#000000" fill-opacity="1"><g transform="translate(398.688323, 339.928011)"><g><path d="M 8.5625 -7.6875 C 9.539062 -7.414062 10.300781 -6.953125 10.84375 -6.296875 C 11.382812 -5.648438 11.65625 -4.875 11.65625 -3.96875 C 11.65625 -2.695312 11.171875 -1.691406 10.203125 -0.953125 C 9.234375 -0.222656 7.929688 0.140625 6.296875 0.140625 C 4.660156 0.140625 3.359375 -0.222656 2.390625 -0.953125 C 1.421875 -1.691406 0.9375 -2.695312 0.9375 -3.96875 C 0.9375 -4.875 1.210938 -5.65625 1.765625 -6.3125 C 2.328125 -6.976562 3.085938 -7.4375 4.046875 -7.6875 C 3.148438 -7.945312 2.460938 -8.378906 1.984375 -8.984375 C 1.515625 -9.597656 1.28125 -10.320312 1.28125 -11.15625 C 1.28125 -11.945312 1.488281 -12.640625 1.90625 -13.234375 C 2.332031 -13.835938 2.925781 -14.300781 3.6875 -14.625 C 4.445312 -14.957031 5.316406 -15.125 6.296875 -15.125 C 7.273438 -15.125 8.144531 -14.957031 8.90625 -14.625 C 9.675781 -14.300781 10.269531 -13.835938 10.6875 -13.234375 C 11.101562 -12.640625 11.3125 -11.945312 11.3125 -11.15625 C 11.3125 -10.320312 11.070312 -9.597656 10.59375 -8.984375 C 10.113281 -8.378906 9.4375 -7.945312 8.5625 -7.6875 Z M 3 -11.03125 C 3 -10.226562 3.296875 -9.578125 3.890625 -9.078125 C 4.484375 -8.585938 5.285156 -8.285156 6.296875 -8.171875 C 7.304688 -8.285156 8.109375 -8.585938 8.703125 -9.078125 C 9.296875 -9.578125 9.59375 -10.226562 9.59375 -11.03125 C 9.59375 -11.851562 9.300781 -12.5 8.71875 -12.96875 C 8.144531 -13.445312 7.335938 -13.6875 6.296875 -13.6875 C 5.265625 -13.6875 4.457031 -13.445312 3.875 -12.96875 C 3.289062 -12.5 3 -11.851562 3 -11.03125 Z M 6.296875 -1.28125 C 7.472656 -1.28125 8.375 -1.515625 9 -1.984375 C 9.632812 -2.460938 9.953125 -3.160156 9.953125 -4.078125 C 9.953125 -4.898438 9.617188 -5.554688 8.953125 -6.046875 C 8.285156 -6.546875 7.398438 -6.851562 6.296875 -6.96875 C 5.191406 -6.851562 4.304688 -6.546875 3.640625 -6.046875 C 2.972656 -5.554688 2.640625 -4.898438 2.640625 -4.078125 C 2.640625 -3.160156 2.953125 -2.460938 3.578125 -1.984375 C 4.210938 -1.515625 5.117188 -1.28125 6.296875 -1.28125 Z M 6.296875 -1.28125 "/></g></g></g><g fill="#000000" fill-opacity="1"><g transform="translate(450.750208, 339.928011)"><g><path d="M 5.84375 -15.125 C 7.644531 -15.125 9.035156 -14.492188 10.015625 -13.234375 C 10.992188 -11.972656 11.484375 -10.179688 11.484375 -7.859375 C 11.484375 -5.316406 10.972656 -3.34375 9.953125 -1.9375 C 8.941406 -0.53125 7.53125 0.171875 5.71875 0.171875 C 4.863281 0.171875 4.023438 0.0078125 3.203125 -0.3125 C 2.378906 -0.632812 1.65625 -1.09375 1.03125 -1.6875 L 1.703125 -3 C 2.410156 -2.394531 3.085938 -1.957031 3.734375 -1.6875 C 4.378906 -1.414062 5.03125 -1.28125 5.6875 -1.28125 C 6.976562 -1.28125 7.976562 -1.851562 8.6875 -3 C 9.394531 -4.144531 9.75 -5.753906 9.75 -7.828125 L 9.75 -8.109375 C 9.425781 -7.328125 8.898438 -6.707031 8.171875 -6.25 C 7.441406 -5.789062 6.609375 -5.5625 5.671875 -5.5625 C 4.765625 -5.5625 3.957031 -5.757812 3.25 -6.15625 C 2.550781 -6.5625 2.003906 -7.125 1.609375 -7.84375 C 1.222656 -8.5625 1.03125 -9.382812 1.03125 -10.3125 C 1.03125 -11.238281 1.234375 -12.0625 1.640625 -12.78125 C 2.054688 -13.507812 2.628906 -14.082031 3.359375 -14.5 C 4.085938 -14.914062 4.914062 -15.125 5.84375 -15.125 Z M 5.9375 -7.015625 C 6.914062 -7.015625 7.710938 -7.320312 8.328125 -7.9375 C 8.953125 -8.550781 9.265625 -9.347656 9.265625 -10.328125 C 9.265625 -11.328125 8.953125 -12.132812 8.328125 -12.75 C 7.710938 -13.363281 6.910156 -13.671875 5.921875 -13.671875 C 4.972656 -13.671875 4.203125 -13.363281 3.609375 -12.75 C 3.023438 -12.144531 2.734375 -11.335938 2.734375 -10.328125 C 2.734375 -9.335938 3.023438 -8.535156 3.609375 -7.921875 C 4.203125 -7.316406 4.976562 -7.015625 5.9375 -7.015625 Z M 5.9375 -7.015625 "/></g></g></g><g fill="#000000" fill-opacity="1"><g transform="translate(496.519117, 339.928011)"><g><path d="M 7.734375 -1.453125 L 11.03125 -1.453125 L 11.03125 0 L 2.6875 0 L 2.6875 -1.453125 L 5.984375 -1.453125 L 5.984375 -12.8125 L 2.921875 -10.859375 L 2.921875 -12.515625 L 6.734375 -14.953125 L 7.734375 -14.953125 Z M 7.734375 -1.453125 "/></g></g></g><g fill="#000000" fill-opacity="1"><g transform="translate(509.119164, 339.928011)"><g><path d="M 6.296875 0.171875 C 4.585938 0.171875 3.289062 -0.472656 2.40625 -1.765625 C 1.519531 -3.066406 1.078125 -4.96875 1.078125 -7.46875 C 1.078125 -9.976562 1.519531 -11.878906 2.40625 -13.171875 C 3.289062 -14.472656 4.585938 -15.125 6.296875 -15.125 C 8.003906 -15.125 9.300781 -14.472656 10.1875 -13.171875 C 11.082031 -11.878906 11.53125 -9.988281 11.53125 -7.5 C 11.53125 -4.988281 11.082031 -3.082031 10.1875 -1.78125 C 9.300781 -0.476562 8.003906 0.171875 6.296875 0.171875 Z M 6.296875 -1.28125 C 7.484375 -1.28125 8.359375 -1.785156 8.921875 -2.796875 C 9.492188 -3.804688 9.78125 -5.375 9.78125 -7.5 C 9.78125 -9.613281 9.5 -11.164062 8.9375 -12.15625 C 8.382812 -13.15625 7.503906 -13.65625 6.296875 -13.65625 C 5.109375 -13.65625 4.226562 -13.15625 3.65625 -12.15625 C 3.09375 -11.164062 2.8125 -9.613281 2.8125 -7.5 C 2.8125 -5.382812 3.09375 -3.816406 3.65625 -2.796875 C 4.226562 -1.785156 5.109375 -1.28125 6.296875 -1.28125 Z M 6.296875 -1.28125 "/></g></g></g><g clip-path="url(#11925bf37f)"><g clip-path="url(#0e64c8631d)"><path fill="#3e5230" d="M 538.710938 309.484375 L 583.660156 309.484375 L 583.660156 354.433594 L 538.710938 354.433594 Z M 538.710938 309.484375 " fill-opacity="1" fill-rule="nonzero"/></g></g><g fill="#ffffff" fill-opacity="1"><g transform="translate(548.58097, 339.928011)"><g><path d="M 7.734375 -1.453125 L 11.03125 -1.453125 L 11.03125 0 L 2.6875 0 L 2.6875 -1.453125 L 5.984375 -1.453125 L 5.984375 -12.8125 L 2.921875 -10.859375 L 2.921875 -12.515625 L 6.734375 -14.953125 L 7.734375 -14.953125 Z M 7.734375 -1.453125 "/></g></g></g><g fill="#ffffff" fill-opacity="1"><g transform="translate(561.181018, 339.928011)"><g><path d="M 7.734375 -1.453125 L 11.03125 -1.453125 L 11.03125 0 L 2.6875 0 L 2.6875 -1.453125 L 5.984375 -1.453125 L 5.984375 -12.8125 L 2.921875 -10.859375 L 2.921875 -12.515625 L 6.734375 -14.953125 L 7.734375 -14.953125 Z M 7.734375 -1.453125 "/></g></g></g><g fill="#000000" fill-opacity="1"><g transform="translate(236.209709, 391.695939)"><g><path d="M 7.734375 -1.453125 L 11.03125 -1.453125 L 11.03125 0 L 2.6875 0 L 2.6875 -1.453125 L 5.984375 -1.453125 L 5.984375 -12.8125 L 2.921875 -10.859375 L 2.921875 -12.515625 L 6.734375 -14.953125 L 7.734375 -14.953125 Z M 7.734375 -1.453125 "/></g></g></g><g fill="#000000" fill-opacity="1"><g transform="translate(248.809756, 391.695939)"><g><path d="M 11.359375 -1.453125 L 11.359375 0 L 1.75 0 L 1.75 -1.296875 L 6.96875 -7.09375 C 7.664062 -7.882812 8.175781 -8.59375 8.5 -9.21875 C 8.820312 -9.84375 8.984375 -10.472656 8.984375 -11.109375 C 8.984375 -11.929688 8.742188 -12.5625 8.265625 -13 C 7.796875 -13.445312 7.117188 -13.671875 6.234375 -13.671875 C 4.804688 -13.671875 3.394531 -13.097656 2 -11.953125 L 1.34375 -13.265625 C 1.925781 -13.828125 2.664062 -14.273438 3.5625 -14.609375 C 4.457031 -14.953125 5.363281 -15.125 6.28125 -15.125 C 7.65625 -15.125 8.738281 -14.769531 9.53125 -14.0625 C 10.332031 -13.351562 10.734375 -12.394531 10.734375 -11.1875 C 10.734375 -10.332031 10.539062 -9.507812 10.15625 -8.71875 C 9.769531 -7.925781 9.128906 -7.039062 8.234375 -6.0625 L 3.96875 -1.453125 Z M 11.359375 -1.453125 "/></g></g></g><g fill="#000000" fill-opacity="1"><g transform="translate(288.2716, 391.695939)"><g><path d="M 7.734375 -1.453125 L 11.03125 -1.453125 L 11.03125 0 L 2.6875 0 L 2.6875 -1.453125 L 5.984375 -1.453125 L 5.984375 -12.8125 L 2.921875 -10.859375 L 2.921875 -12.515625 L 6.734375 -14.953125 L 7.734375 -14.953125 Z M 7.734375 -1.453125 "/></g></g></g><g fill="#000000" fill-opacity="1"><g transform="translate(300.871648, 391.695939)"><g><path d="M 8.359375 -7.6875 C 9.242188 -7.4375 9.914062 -7 10.375 -6.375 C 10.832031 -5.757812 11.0625 -4.984375 11.0625 -4.046875 C 11.0625 -2.742188 10.617188 -1.71875 9.734375 -0.96875 C 8.859375 -0.226562 7.664062 0.140625 6.15625 0.140625 C 5.1875 0.140625 4.253906 -0.015625 3.359375 -0.328125 C 2.472656 -0.648438 1.722656 -1.109375 1.109375 -1.703125 L 1.78125 -3.03125 C 3.164062 -1.875 4.609375 -1.296875 6.109375 -1.296875 C 7.171875 -1.296875 7.976562 -1.535156 8.53125 -2.015625 C 9.082031 -2.492188 9.359375 -3.191406 9.359375 -4.109375 C 9.359375 -5.941406 8.210938 -6.859375 5.921875 -6.859375 L 4.203125 -6.859375 L 4.203125 -8.3125 L 5.59375 -8.3125 C 6.695312 -8.3125 7.539062 -8.554688 8.125 -9.046875 C 8.71875 -9.535156 9.015625 -10.238281 9.015625 -11.15625 C 9.015625 -11.96875 8.769531 -12.585938 8.28125 -13.015625 C 7.800781 -13.453125 7.117188 -13.671875 6.234375 -13.671875 C 4.804688 -13.671875 3.394531 -13.097656 2 -11.953125 L 1.34375 -13.265625 C 1.945312 -13.847656 2.6875 -14.300781 3.5625 -14.625 C 4.4375 -14.957031 5.347656 -15.125 6.296875 -15.125 C 7.640625 -15.125 8.710938 -14.78125 9.515625 -14.09375 C 10.328125 -13.40625 10.734375 -12.476562 10.734375 -11.3125 C 10.734375 -10.457031 10.519531 -9.707031 10.09375 -9.0625 C 9.675781 -8.425781 9.097656 -7.96875 8.359375 -7.6875 Z M 8.359375 -7.6875 "/></g></g></g><g fill="#000000" fill-opacity="1"><g transform="translate(340.333463, 391.695939)"><g><path d="M 7.734375 -1.453125 L 11.03125 -1.453125 L 11.03125 0 L 2.6875 0 L 2.6875 -1.453125 L 5.984375 -1.453125 L 5.984375 -12.8125 L 2.921875 -10.859375 L 2.921875 -12.515625 L 6.734375 -14.953125 L 7.734375 -14.953125 Z M 7.734375 -1.453125 "/></g></g></g><g fill="#000000" fill-opacity="1"><g transform="translate(352.933511, 391.695939)"><g><path d="M 11.90625 -4.6875 L 11.90625 -3.25 L 9.640625 -3.25 L 9.640625 0 L 7.921875 0 L 7.921875 -3.25 L 1.03125 -3.25 L 1.03125 -4.5625 L 8.234375 -14.953125 L 9.640625 -14.953125 L 9.640625 -4.6875 Z M 2.8125 -4.6875 L 7.921875 -4.6875 L 7.921875 -12.03125 Z M 2.8125 -4.6875 "/></g></g></g><g fill="#000000" fill-opacity="1"><g transform="translate(392.395355, 391.695939)"><g><path d="M 7.734375 -1.453125 L 11.03125 -1.453125 L 11.03125 0 L 2.6875 0 L 2.6875 -1.453125 L 5.984375 -1.453125 L 5.984375 -12.8125 L 2.921875 -10.859375 L 2.921875 -12.515625 L 6.734375 -14.953125 L 7.734375 -14.953125 Z M 7.734375 -1.453125 "/></g></g></g><g fill="#000000" fill-opacity="1"><g transform="translate(404.995402, 391.695939)"><g><path d="M 6.9375 -9.390625 C 7.875 -9.390625 8.691406 -9.1875 9.390625 -8.78125 C 10.097656 -8.382812 10.640625 -7.828125 11.015625 -7.109375 C 11.398438 -6.398438 11.59375 -5.578125 11.59375 -4.640625 C 11.59375 -3.703125 11.382812 -2.867188 10.96875 -2.140625 C 10.5625 -1.410156 9.972656 -0.847656 9.203125 -0.453125 C 8.441406 -0.0546875 7.550781 0.140625 6.53125 0.140625 C 5.625 0.140625 4.726562 -0.0195312 3.84375 -0.34375 C 2.957031 -0.675781 2.210938 -1.128906 1.609375 -1.703125 L 2.265625 -3.03125 C 3.648438 -1.875 5.070312 -1.296875 6.53125 -1.296875 C 7.582031 -1.296875 8.40625 -1.59375 9 -2.1875 C 9.59375 -2.789062 9.890625 -3.601562 9.890625 -4.625 C 9.890625 -5.613281 9.59375 -6.410156 9 -7.015625 C 8.414062 -7.628906 7.632812 -7.9375 6.65625 -7.9375 C 5.226562 -7.9375 4.085938 -7.351562 3.234375 -6.1875 L 2.03125 -6.1875 L 2.03125 -14.953125 L 11 -14.953125 L 11 -13.53125 L 3.765625 -13.53125 L 3.765625 -8.1875 C 4.585938 -8.988281 5.644531 -9.390625 6.9375 -9.390625 Z M 6.9375 -9.390625 "/></g></g></g><g fill="#000000" fill-opacity="1"><g transform="translate(444.45724, 391.695939)"><g><path d="M 7.734375 -1.453125 L 11.03125 -1.453125 L 11.03125 0 L 2.6875 0 L 2.6875 -1.453125 L 5.984375 -1.453125 L 5.984375 -12.8125 L 2.921875 -10.859375 L 2.921875 -12.515625 L 6.734375 -14.953125 L 7.734375 -14.953125 Z M 7.734375 -1.453125 "/></g></g></g><g fill="#000000" fill-opacity="1"><g transform="translate(457.057287, 391.695939)"><g><path d="M 6.9375 -9.390625 C 7.84375 -9.390625 8.648438 -9.1875 9.359375 -8.78125 C 10.066406 -8.382812 10.613281 -7.828125 11 -7.109375 C 11.394531 -6.390625 11.59375 -5.566406 11.59375 -4.640625 C 11.59375 -3.710938 11.382812 -2.882812 10.96875 -2.15625 C 10.5625 -1.4375 9.992188 -0.867188 9.265625 -0.453125 C 8.535156 -0.0351562 7.707031 0.171875 6.78125 0.171875 C 4.976562 0.171875 3.585938 -0.457031 2.609375 -1.71875 C 1.628906 -2.976562 1.140625 -4.769531 1.140625 -7.09375 C 1.140625 -8.78125 1.363281 -10.222656 1.8125 -11.421875 C 2.269531 -12.628906 2.925781 -13.546875 3.78125 -14.171875 C 4.644531 -14.804688 5.679688 -15.125 6.890625 -15.125 C 7.753906 -15.125 8.59375 -14.960938 9.40625 -14.640625 C 10.226562 -14.316406 10.953125 -13.859375 11.578125 -13.265625 L 10.921875 -11.953125 C 10.222656 -12.535156 9.550781 -12.96875 8.90625 -13.25 C 8.257812 -13.53125 7.601562 -13.671875 6.9375 -13.671875 C 5.644531 -13.671875 4.640625 -13.097656 3.921875 -11.953125 C 3.210938 -10.804688 2.859375 -9.195312 2.859375 -7.125 L 2.859375 -6.796875 C 3.179688 -7.597656 3.703125 -8.226562 4.421875 -8.6875 C 5.148438 -9.15625 5.988281 -9.390625 6.9375 -9.390625 Z M 6.703125 -1.28125 C 7.648438 -1.28125 8.414062 -1.582031 9 -2.1875 C 9.59375 -2.800781 9.890625 -3.613281 9.890625 -4.625 C 9.890625 -5.613281 9.59375 -6.410156 9 -7.015625 C 8.40625 -7.628906 7.628906 -7.9375 6.671875 -7.9375 C 5.691406 -7.9375 4.894531 -7.628906 4.28125 -7.015625 C 3.664062 -6.398438 3.359375 -5.601562 3.359375 -4.625 C 3.359375 -3.625 3.664062 -2.816406 4.28125 -2.203125 C 4.894531 -1.585938 5.703125 -1.28125 6.703125 -1.28125 Z M 6.703125 -1.28125 "/></g></g></g><g fill="#000000" fill-opacity="1"><g transform="translate(496.519117, 391.695939)"><g><path d="M 7.734375 -1.453125 L 11.03125 -1.453125 L 11.03125 0 L 2.6875 0 L 2.6875 -1.453125 L 5.984375 -1.453125 L 5.984375 -12.8125 L 2.921875 -10.859375 L 2.921875 -12.515625 L 6.734375 -14.953125 L 7.734375 -14.953125 Z M 7.734375 -1.453125 "/></g></g></g><g fill="#000000" fill-opacity="1"><g transform="translate(509.119164, 391.695939)"><g><path d="M 1.359375 -14.953125 L 11.234375 -14.953125 L 11.234375 -13.671875 L 4.21875 0 L 2.375 0 L 9.34375 -13.5 L 1.359375 -13.5 Z M 1.359375 -14.953125 "/></g></g></g><g fill="#000000" fill-opacity="1"><g transform="translate(548.58097, 391.695939)"><g><path d="M 7.734375 -1.453125 L 11.03125 -1.453125 L 11.03125 0 L 2.6875 0 L 2.6875 -1.453125 L 5.984375 -1.453125 L 5.984375 -12.8125 L 2.921875 -10.859375 L 2.921875 -12.515625 L 6.734375 -14.953125 L 7.734375 -14.953125 Z M 7.734375 -1.453125 "/></g></g></g><g fill="#000000" fill-opacity="1"><g transform="translate(561.181018, 391.695939)"><g><path d="M 8.5625 -7.6875 C 9.539062 -7.414062 10.300781 -6.953125 10.84375 -6.296875 C 11.382812 -5.648438 11.65625 -4.875 11.65625 -3.96875 C 11.65625 -2.695312 11.171875 -1.691406 10.203125 -0.953125 C 9.234375 -0.222656 7.929688 0.140625 6.296875 0.140625 C 4.660156 0.140625 3.359375 -0.222656 2.390625 -0.953125 C 1.421875 -1.691406 0.9375 -2.695312 0.9375 -3.96875 C 0.9375 -4.875 1.210938 -5.65625 1.765625 -6.3125 C 2.328125 -6.976562 3.085938 -7.4375 4.046875 -7.6875 C 3.148438 -7.945312 2.460938 -8.378906 1.984375 -8.984375 C 1.515625 -9.597656 1.28125 -10.320312 1.28125 -11.15625 C 1.28125 -11.945312 1.488281 -12.640625 1.90625 -13.234375 C 2.332031 -13.835938 2.925781 -14.300781 3.6875 -14.625 C 4.445312 -14.957031 5.316406 -15.125 6.296875 -15.125 C 7.273438 -15.125 8.144531 -14.957031 8.90625 -14.625 C 9.675781 -14.300781 10.269531 -13.835938 10.6875 -13.234375 C 11.101562 -12.640625 11.3125 -11.945312 11.3125 -11.15625 C 11.3125 -10.320312 11.070312 -9.597656 10.59375 -8.984375 C 10.113281 -8.378906 9.4375 -7.945312 8.5625 -7.6875 Z M 3 -11.03125 C 3 -10.226562 3.296875 -9.578125 3.890625 -9.078125 C 4.484375 -8.585938 5.285156 -8.285156 6.296875 -8.171875 C 7.304688 -8.285156 8.109375 -8.585938 8.703125 -9.078125 C 9.296875 -9.578125 9.59375 -10.226562 9.59375 -11.03125 C 9.59375 -11.851562 9.300781 -12.5 8.71875 -12.96875 C 8.144531 -13.445312 7.335938 -13.6875 6.296875 -13.6875 C 5.265625 -13.6875 4.457031 -13.445312 3.875 -12.96875 C 3.289062 -12.5 3 -11.851562 3 -11.03125 Z M 6.296875 -1.28125 C 7.472656 -1.28125 8.375 -1.515625 9 -1.984375 C 9.632812 -2.460938 9.953125 -3.160156 9.953125 -4.078125 C 9.953125 -4.898438 9.617188 -5.554688 8.953125 -6.046875 C 8.285156 -6.546875 7.398438 -6.851562 6.296875 -6.96875 C 5.191406 -6.851562 4.304688 -6.546875 3.640625 -6.046875 C 2.972656 -5.554688 2.640625 -4.898438 2.640625 -4.078125 C 2.640625 -3.160156 2.953125 -2.460938 3.578125 -1.984375 C 4.210938 -1.515625 5.117188 -1.28125 6.296875 -1.28125 Z M 6.296875 -1.28125 "/></g></g></g><g fill="#000000" fill-opacity="1"><g transform="translate(236.209709, 443.463862)"><g><path d="M 7.734375 -1.453125 L 11.03125 -1.453125 L 11.03125 0 L 2.6875 0 L 2.6875 -1.453125 L 5.984375 -1.453125 L 5.984375 -12.8125 L 2.921875 -10.859375 L 2.921875 -12.515625 L 6.734375 -14.953125 L 7.734375 -14.953125 Z M 7.734375 -1.453125 "/></g></g></g><g fill="#000000" fill-opacity="1"><g transform="translate(248.809756, 443.463862)"><g><path d="M 5.84375 -15.125 C 7.644531 -15.125 9.035156 -14.492188 10.015625 -13.234375 C 10.992188 -11.972656 11.484375 -10.179688 11.484375 -7.859375 C 11.484375 -5.316406 10.972656 -3.34375 9.953125 -1.9375 C 8.941406 -0.53125 7.53125 0.171875 5.71875 0.171875 C 4.863281 0.171875 4.023438 0.0078125 3.203125 -0.3125 C 2.378906 -0.632812 1.65625 -1.09375 1.03125 -1.6875 L 1.703125 -3 C 2.410156 -2.394531 3.085938 -1.957031 3.734375 -1.6875 C 4.378906 -1.414062 5.03125 -1.28125 5.6875 -1.28125 C 6.976562 -1.28125 7.976562 -1.851562 8.6875 -3 C 9.394531 -4.144531 9.75 -5.753906 9.75 -7.828125 L 9.75 -8.109375 C 9.425781 -7.328125 8.898438 -6.707031 8.171875 -6.25 C 7.441406 -5.789062 6.609375 -5.5625 5.671875 -5.5625 C 4.765625 -5.5625 3.957031 -5.757812 3.25 -6.15625 C 2.550781 -6.5625 2.003906 -7.125 1.609375 -7.84375 C 1.222656 -8.5625 1.03125 -9.382812 1.03125 -10.3125 C 1.03125 -11.238281 1.234375 -12.0625 1.640625 -12.78125 C 2.054688 -13.507812 2.628906 -14.082031 3.359375 -14.5 C 4.085938 -14.914062 4.914062 -15.125 5.84375 -15.125 Z M 5.9375 -7.015625 C 6.914062 -7.015625 7.710938 -7.320312 8.328125 -7.9375 C 8.953125 -8.550781 9.265625 -9.347656 9.265625 -10.328125 C 9.265625 -11.328125 8.953125 -12.132812 8.328125 -12.75 C 7.710938 -13.363281 6.910156 -13.671875 5.921875 -13.671875 C 4.972656 -13.671875 4.203125 -13.363281 3.609375 -12.75 C 3.023438 -12.144531 2.734375 -11.335938 2.734375 -10.328125 C 2.734375 -9.335938 3.023438 -8.535156 3.609375 -7.921875 C 4.203125 -7.316406 4.976562 -7.015625 5.9375 -7.015625 Z M 5.9375 -7.015625 "/></g></g></g><g fill="#000000" fill-opacity="1"><g transform="translate(288.2716, 443.463862)"><g><path d="M 11.359375 -1.453125 L 11.359375 0 L 1.75 0 L 1.75 -1.296875 L 6.96875 -7.09375 C 7.664062 -7.882812 8.175781 -8.59375 8.5 -9.21875 C 8.820312 -9.84375 8.984375 -10.472656 8.984375 -11.109375 C 8.984375 -11.929688 8.742188 -12.5625 8.265625 -13 C 7.796875 -13.445312 7.117188 -13.671875 6.234375 -13.671875 C 4.804688 -13.671875 3.394531 -13.097656 2 -11.953125 L 1.34375 -13.265625 C 1.925781 -13.828125 2.664062 -14.273438 3.5625 -14.609375 C 4.457031 -14.953125 5.363281 -15.125 6.28125 -15.125 C 7.65625 -15.125 8.738281 -14.769531 9.53125 -14.0625 C 10.332031 -13.351562 10.734375 -12.394531 10.734375 -11.1875 C 10.734375 -10.332031 10.539062 -9.507812 10.15625 -8.71875 C 9.769531 -7.925781 9.128906 -7.039062 8.234375 -6.0625 L 3.96875 -1.453125 Z M 11.359375 -1.453125 "/></g></g></g><g fill="#000000" fill-opacity="1"><g transform="translate(300.871648, 443.463862)"><g><path d="M 6.296875 0.171875 C 4.585938 0.171875 3.289062 -0.472656 2.40625 -1.765625 C 1.519531 -3.066406 1.078125 -4.96875 1.078125 -7.46875 C 1.078125 -9.976562 1.519531 -11.878906 2.40625 -13.171875 C 3.289062 -14.472656 4.585938 -15.125 6.296875 -15.125 C 8.003906 -15.125 9.300781 -14.472656 10.1875 -13.171875 C 11.082031 -11.878906 11.53125 -9.988281 11.53125 -7.5 C 11.53125 -4.988281 11.082031 -3.082031 10.1875 -1.78125 C 9.300781 -0.476562 8.003906 0.171875 6.296875 0.171875 Z M 6.296875 -1.28125 C 7.484375 -1.28125 8.359375 -1.785156 8.921875 -2.796875 C 9.492188 -3.804688 9.78125 -5.375 9.78125 -7.5 C 9.78125 -9.613281 9.5 -11.164062 8.9375 -12.15625 C 8.382812 -13.15625 7.503906 -13.65625 6.296875 -13.65625 C 5.109375 -13.65625 4.226562 -13.15625 3.65625 -12.15625 C 3.09375 -11.164062 2.8125 -9.613281 2.8125 -7.5 C 2.8125 -5.382812 3.09375 -3.816406 3.65625 -2.796875 C 4.226562 -1.785156 5.109375 -1.28125 6.296875 -1.28125 Z M 6.296875 -1.28125 "/></g></g></g><g fill="#ffffff" fill-opacity="1"><g transform="translate(340.333463, 443.463862)"><g><path d="M 11.359375 -1.453125 L 11.359375 0 L 1.75 0 L 1.75 -1.296875 L 6.96875 -7.09375 C 7.664062 -7.882812 8.175781 -8.59375 8.5 -9.21875 C 8.820312 -9.84375 8.984375 -10.472656 8.984375 -11.109375 C 8.984375 -11.929688 8.742188 -12.5625 8.265625 -13 C 7.796875 -13.445312 7.117188 -13.671875 6.234375 -13.671875 C 4.804688 -13.671875 3.394531 -13.097656 2 -11.953125 L 1.34375 -13.265625 C 1.925781 -13.828125 2.664062 -14.273438 3.5625 -14.609375 C 4.457031 -14.953125 5.363281 -15.125 6.28125 -15.125 C 7.65625 -15.125 8.738281 -14.769531 9.53125 -14.0625 C 10.332031 -13.351562 10.734375 -12.394531 10.734375 -11.1875 C 10.734375 -10.332031 10.539062 -9.507812 10.15625 -8.71875 C 9.769531 -7.925781 9.128906 -7.039062 8.234375 -6.0625 L 3.96875 -1.453125 Z M 11.359375 -1.453125 "/></g></g></g><g fill="#ffffff" fill-opacity="1"><g transform="translate(352.933511, 443.463862)"><g><path d="M 7.734375 -1.453125 L 11.03125 -1.453125 L 11.03125 0 L 2.6875 0 L 2.6875 -1.453125 L 5.984375 -1.453125 L 5.984375 -12.8125 L 2.921875 -10.859375 L 2.921875 -12.515625 L 6.734375 -14.953125 L 7.734375 -14.953125 Z M 7.734375 -1.453125 "/></g></g></g><g fill="#000000" fill-opacity="1"><g transform="translate(392.395355, 443.463862)"><g><path d="M 11.359375 -1.453125 L 11.359375 0 L 1.75 0 L 1.75 -1.296875 L 6.96875 -7.09375 C 7.664062 -7.882812 8.175781 -8.59375 8.5 -9.21875 C 8.820312 -9.84375 8.984375 -10.472656 8.984375 -11.109375 C 8.984375 -11.929688 8.742188 -12.5625 8.265625 -13 C 7.796875 -13.445312 7.117188 -13.671875 6.234375 -13.671875 C 4.804688 -13.671875 3.394531 -13.097656 2 -11.953125 L 1.34375 -13.265625 C 1.925781 -13.828125 2.664062 -14.273438 3.5625 -14.609375 C 4.457031 -14.953125 5.363281 -15.125 6.28125 -15.125 C 7.65625 -15.125 8.738281 -14.769531 9.53125 -14.0625 C 10.332031 -13.351562 10.734375 -12.394531 10.734375 -11.1875 C 10.734375 -10.332031 10.539062 -9.507812 10.15625 -8.71875 C 9.769531 -7.925781 9.128906 -7.039062 8.234375 -6.0625 L 3.96875 -1.453125 Z M 11.359375 -1.453125 "/></g></g></g><g fill="#000000" fill-opacity="1"><g transform="translate(404.995402, 443.463862)"><g><path d="M 11.359375 -1.453125 L 11.359375 0 L 1.75 0 L 1.75 -1.296875 L 6.96875 -7.09375 C 7.664062 -7.882812 8.175781 -8.59375 8.5 -9.21875 C 8.820312 -9.84375 8.984375 -10.472656 8.984375 -11.109375 C 8.984375 -11.929688 8.742188 -12.5625 8.265625 -13 C 7.796875 -13.445312 7.117188 -13.671875 6.234375 -13.671875 C 4.804688 -13.671875 3.394531 -13.097656 2 -11.953125 L 1.34375 -13.265625 C 1.925781 -13.828125 2.664062 -14.273438 3.5625 -14.609375 C 4.457031 -14.953125 5.363281 -15.125 6.28125 -15.125 C 7.65625 -15.125 8.738281 -14.769531 9.53125 -14.0625 C 10.332031 -13.351562 10.734375 -12.394531 10.734375 -11.1875 C 10.734375 -10.332031 10.539062 -9.507812 10.15625 -8.71875 C 9.769531 -7.925781 9.128906 -7.039062 8.234375 -6.0625 L 3.96875 -1.453125 Z M 11.359375 -1.453125 "/></g></g></g><g fill="#000000" fill-opacity="1"><g transform="translate(444.45724, 443.463862)"><g><path d="M 11.359375 -1.453125 L 11.359375 0 L 1.75 0 L 1.75 -1.296875 L 6.96875 -7.09375 C 7.664062 -7.882812 8.175781 -8.59375 8.5 -9.21875 C 8.820312 -9.84375 8.984375 -10.472656 8.984375 -11.109375 C 8.984375 -11.929688 8.742188 -12.5625 8.265625 -13 C 7.796875 -13.445312 7.117188 -13.671875 6.234375 -13.671875 C 4.804688 -13.671875 3.394531 -13.097656 2 -11.953125 L 1.34375 -13.265625 C 1.925781 -13.828125 2.664062 -14.273438 3.5625 -14.609375 C 4.457031 -14.953125 5.363281 -15.125 6.28125 -15.125 C 7.65625 -15.125 8.738281 -14.769531 9.53125 -14.0625 C 10.332031 -13.351562 10.734375 -12.394531 10.734375 -11.1875 C 10.734375 -10.332031 10.539062 -9.507812 10.15625 -8.71875 C 9.769531 -7.925781 9.128906 -7.039062 8.234375 -6.0625 L 3.96875 -1.453125 Z M 11.359375 -1.453125 "/></g></g></g><g fill="#000000" fill-opacity="1"><g transform="translate(457.057287, 443.463862)"><g><path d="M 8.359375 -7.6875 C 9.242188 -7.4375 9.914062 -7 10.375 -6.375 C 10.832031 -5.757812 11.0625 -4.984375 11.0625 -4.046875 C 11.0625 -2.742188 10.617188 -1.71875 9.734375 -0.96875 C 8.859375 -0.226562 7.664062 0.140625 6.15625 0.140625 C 5.1875 0.140625 4.253906 -0.015625 3.359375 -0.328125 C 2.472656 -0.648438 1.722656 -1.109375 1.109375 -1.703125 L 1.78125 -3.03125 C 3.164062 -1.875 4.609375 -1.296875 6.109375 -1.296875 C 7.171875 -1.296875 7.976562 -1.535156 8.53125 -2.015625 C 9.082031 -2.492188 9.359375 -3.191406 9.359375 -4.109375 C 9.359375 -5.941406 8.210938 -6.859375 5.921875 -6.859375 L 4.203125 -6.859375 L 4.203125 -8.3125 L 5.59375 -8.3125 C 6.695312 -8.3125 7.539062 -8.554688 8.125 -9.046875 C 8.71875 -9.535156 9.015625 -10.238281 9.015625 -11.15625 C 9.015625 -11.96875 8.769531 -12.585938 8.28125 -13.015625 C 7.800781 -13.453125 7.117188 -13.671875 6.234375 -13.671875 C 4.804688 -13.671875 3.394531 -13.097656 2 -11.953125 L 1.34375 -13.265625 C 1.945312 -13.847656 2.6875 -14.300781 3.5625 -14.625 C 4.4375 -14.957031 5.347656 -15.125 6.296875 -15.125 C 7.640625 -15.125 8.710938 -14.78125 9.515625 -14.09375 C 10.328125 -13.40625 10.734375 -12.476562 10.734375 -11.3125 C 10.734375 -10.457031 10.519531 -9.707031 10.09375 -9.0625 C 9.675781 -8.425781 9.097656 -7.96875 8.359375 -7.6875 Z M 8.359375 -7.6875 "/></g></g></g><g fill="#000000" fill-opacity="1"><g transform="translate(496.519117, 443.463862)"><g><path d="M 11.359375 -1.453125 L 11.359375 0 L 1.75 0 L 1.75 -1.296875 L 6.96875 -7.09375 C 7.664062 -7.882812 8.175781 -8.59375 8.5 -9.21875 C 8.820312 -9.84375 8.984375 -10.472656 8.984375 -11.109375 C 8.984375 -11.929688 8.742188 -12.5625 8.265625 -13 C 7.796875 -13.445312 7.117188 -13.671875 6.234375 -13.671875 C 4.804688 -13.671875 3.394531 -13.097656 2 -11.953125 L 1.34375 -13.265625 C 1.925781 -13.828125 2.664062 -14.273438 3.5625 -14.609375 C 4.457031 -14.953125 5.363281 -15.125 6.28125 -15.125 C 7.65625 -15.125 8.738281 -14.769531 9.53125 -14.0625 C 10.332031 -13.351562 10.734375 -12.394531 10.734375 -11.1875 C 10.734375 -10.332031 10.539062 -9.507812 10.15625 -8.71875 C 9.769531 -7.925781 9.128906 -7.039062 8.234375 -6.0625 L 3.96875 -1.453125 Z M 11.359375 -1.453125 "/></g></g></g><g fill="#000000" fill-opacity="1"><g transform="translate(509.119164, 443.463862)"><g><path d="M 11.90625 -4.6875 L 11.90625 -3.25 L 9.640625 -3.25 L 9.640625 0 L 7.921875 0 L 7.921875 -3.25 L 1.03125 -3.25 L 1.03125 -4.5625 L 8.234375 -14.953125 L 9.640625 -14.953125 L 9.640625 -4.6875 Z M 2.8125 -4.6875 L 7.921875 -4.6875 L 7.921875 -12.03125 Z M 2.8125 -4.6875 "/></g></g></g><g fill="#000000" fill-opacity="1"><g transform="translate(548.58097, 443.463862)"><g><path d="M 11.359375 -1.453125 L 11.359375 0 L 1.75 0 L 1.75 -1.296875 L 6.96875 -7.09375 C 7.664062 -7.882812 8.175781 -8.59375 8.5 -9.21875 C 8.820312 -9.84375 8.984375 -10.472656 8.984375 -11.109375 C 8.984375 -11.929688 8.742188 -12.5625 8.265625 -13 C 7.796875 -13.445312 7.117188 -13.671875 6.234375 -13.671875 C 4.804688 -13.671875 3.394531 -13.097656 2 -11.953125 L 1.34375 -13.265625 C 1.925781 -13.828125 2.664062 -14.273438 3.5625 -14.609375 C 4.457031 -14.953125 5.363281 -15.125 6.28125 -15.125 C 7.65625 -15.125 8.738281 -14.769531 9.53125 -14.0625 C 10.332031 -13.351562 10.734375 -12.394531 10.734375 -11.1875 C 10.734375 -10.332031 10.539062 -9.507812 10.15625 -8.71875 C 9.769531 -7.925781 9.128906 -7.039062 8.234375 -6.0625 L 3.96875 -1.453125 Z M 11.359375 -1.453125 "/></g></g></g><g fill="#000000" fill-opacity="1"><g transform="translate(561.181018, 443.463862)"><g><path d="M 6.9375 -9.390625 C 7.875 -9.390625 8.691406 -9.1875 9.390625 -8.78125 C 10.097656 -8.382812 10.640625 -7.828125 11.015625 -7.109375 C 11.398438 -6.398438 11.59375 -5.578125 11.59375 -4.640625 C 11.59375 -3.703125 11.382812 -2.867188 10.96875 -2.140625 C 10.5625 -1.410156 9.972656 -0.847656 9.203125 -0.453125 C 8.441406 -0.0546875 7.550781 0.140625 6.53125 0.140625 C 5.625 0.140625 4.726562 -0.0195312 3.84375 -0.34375 C 2.957031 -0.675781 2.210938 -1.128906 1.609375 -1.703125 L 2.265625 -3.03125 C 3.648438 -1.875 5.070312 -1.296875 6.53125 -1.296875 C 7.582031 -1.296875 8.40625 -1.59375 9 -2.1875 C 9.59375 -2.789062 9.890625 -3.601562 9.890625 -4.625 C 9.890625 -5.613281 9.59375 -6.410156 9 -7.015625 C 8.414062 -7.628906 7.632812 -7.9375 6.65625 -7.9375 C 5.226562 -7.9375 4.085938 -7.351562 3.234375 -6.1875 L 2.03125 -6.1875 L 2.03125 -14.953125 L 11 -14.953125 L 11 -13.53125 L 3.765625 -13.53125 L 3.765625 -8.1875 C 4.585938 -8.988281 5.644531 -9.390625 6.9375 -9.390625 Z M 6.9375 -9.390625 "/></g></g></g><g fill="#000000" fill-opacity="1"><g transform="translate(236.209709, 495.231787)"><g><path d="M 11.359375 -1.453125 L 11.359375 0 L 1.75 0 L 1.75 -1.296875 L 6.96875 -7.09375 C 7.664062 -7.882812 8.175781 -8.59375 8.5 -9.21875 C 8.820312 -9.84375 8.984375 -10.472656 8.984375 -11.109375 C 8.984375 -11.929688 8.742188 -12.5625 8.265625 -13 C 7.796875 -13.445312 7.117188 -13.671875 6.234375 -13.671875 C 4.804688 -13.671875 3.394531 -13.097656 2 -11.953125 L 1.34375 -13.265625 C 1.925781 -13.828125 2.664062 -14.273438 3.5625 -14.609375 C 4.457031 -14.953125 5.363281 -15.125 6.28125 -15.125 C 7.65625 -15.125 8.738281 -14.769531 9.53125 -14.0625 C 10.332031 -13.351562 10.734375 -12.394531 10.734375 -11.1875 C 10.734375 -10.332031 10.539062 -9.507812 10.15625 -8.71875 C 9.769531 -7.925781 9.128906 -7.039062 8.234375 -6.0625 L 3.96875 -1.453125 Z M 11.359375 -1.453125 "/></g></g></g><g fill="#000000" fill-opacity="1"><g transform="translate(248.809756, 495.231787)"><g><path d="M 6.9375 -9.390625 C 7.84375 -9.390625 8.648438 -9.1875 9.359375 -8.78125 C 10.066406 -8.382812 10.613281 -7.828125 11 -7.109375 C 11.394531 -6.390625 11.59375 -5.566406 11.59375 -4.640625 C 11.59375 -3.710938 11.382812 -2.882812 10.96875 -2.15625 C 10.5625 -1.4375 9.992188 -0.867188 9.265625 -0.453125 C 8.535156 -0.0351562 7.707031 0.171875 6.78125 0.171875 C 4.976562 0.171875 3.585938 -0.457031 2.609375 -1.71875 C 1.628906 -2.976562 1.140625 -4.769531 1.140625 -7.09375 C 1.140625 -8.78125 1.363281 -10.222656 1.8125 -11.421875 C 2.269531 -12.628906 2.925781 -13.546875 3.78125 -14.171875 C 4.644531 -14.804688 5.679688 -15.125 6.890625 -15.125 C 7.753906 -15.125 8.59375 -14.960938 9.40625 -14.640625 C 10.226562 -14.316406 10.953125 -13.859375 11.578125 -13.265625 L 10.921875 -11.953125 C 10.222656 -12.535156 9.550781 -12.96875 8.90625 -13.25 C 8.257812 -13.53125 7.601562 -13.671875 6.9375 -13.671875 C 5.644531 -13.671875 4.640625 -13.097656 3.921875 -11.953125 C 3.210938 -10.804688 2.859375 -9.195312 2.859375 -7.125 L 2.859375 -6.796875 C 3.179688 -7.597656 3.703125 -8.226562 4.421875 -8.6875 C 5.148438 -9.15625 5.988281 -9.390625 6.9375 -9.390625 Z M 6.703125 -1.28125 C 7.648438 -1.28125 8.414062 -1.582031 9 -2.1875 C 9.59375 -2.800781 9.890625 -3.613281 9.890625 -4.625 C 9.890625 -5.613281 9.59375 -6.410156 9 -7.015625 C 8.40625 -7.628906 7.628906 -7.9375 6.671875 -7.9375 C 5.691406 -7.9375 4.894531 -7.628906 4.28125 -7.015625 C 3.664062 -6.398438 3.359375 -5.601562 3.359375 -4.625 C 3.359375 -3.625 3.664062 -2.816406 4.28125 -2.203125 C 4.894531 -1.585938 5.703125 -1.28125 6.703125 -1.28125 Z M 6.703125 -1.28125 "/></g></g></g><g fill="#000000" fill-opacity="1"><g transform="translate(288.2716, 495.231787)"><g><path d="M 11.359375 -1.453125 L 11.359375 0 L 1.75 0 L 1.75 -1.296875 L 6.96875 -7.09375 C 7.664062 -7.882812 8.175781 -8.59375 8.5 -9.21875 C 8.820312 -9.84375 8.984375 -10.472656 8.984375 -11.109375 C 8.984375 -11.929688 8.742188 -12.5625 8.265625 -13 C 7.796875 -13.445312 7.117188 -13.671875 6.234375 -13.671875 C 4.804688 -13.671875 3.394531 -13.097656 2 -11.953125 L 1.34375 -13.265625 C 1.925781 -13.828125 2.664062 -14.273438 3.5625 -14.609375 C 4.457031 -14.953125 5.363281 -15.125 6.28125 -15.125 C 7.65625 -15.125 8.738281 -14.769531 9.53125 -14.0625 C 10.332031 -13.351562 10.734375 -12.394531 10.734375 -11.1875 C 10.734375 -10.332031 10.539062 -9.507812 10.15625 -8.71875 C 9.769531 -7.925781 9.128906 -7.039062 8.234375 -6.0625 L 3.96875 -1.453125 Z M 11.359375 -1.453125 "/></g></g></g><g fill="#000000" fill-opacity="1"><g transform="translate(300.871648, 495.231787)"><g><path d="M 1.359375 -14.953125 L 11.234375 -14.953125 L 11.234375 -13.671875 L 4.21875 0 L 2.375 0 L 9.34375 -13.5 L 1.359375 -13.5 Z M 1.359375 -14.953125 "/></g></g></g><g fill="#000000" fill-opacity="1"><g transform="translate(340.333463, 495.231787)"><g><path d="M 11.359375 -1.453125 L 11.359375 0 L 1.75 0 L 1.75 -1.296875 L 6.96875 -7.09375 C 7.664062 -7.882812 8.175781 -8.59375 8.5 -9.21875 C 8.820312 -9.84375 8.984375 -10.472656 8.984375 -11.109375 C 8.984375 -11.929688 8.742188 -12.5625 8.265625 -13 C 7.796875 -13.445312 7.117188 -13.671875 6.234375 -13.671875 C 4.804688 -13.671875 3.394531 -13.097656 2 -11.953125 L 1.34375 -13.265625 C 1.925781 -13.828125 2.664062 -14.273438 3.5625 -14.609375 C 4.457031 -14.953125 5.363281 -15.125 6.28125 -15.125 C 7.65625 -15.125 8.738281 -14.769531 9.53125 -14.0625 C 10.332031 -13.351562 10.734375 -12.394531 10.734375 -11.1875 C 10.734375 -10.332031 10.539062 -9.507812 10.15625 -8.71875 C 9.769531 -7.925781 9.128906 -7.039062 8.234375 -6.0625 L 3.96875 -1.453125 Z M 11.359375 -1.453125 "/></g></g></g><g fill="#000000" fill-opacity="1"><g transform="translate(352.933511, 495.231787)"><g><path d="M 8.5625 -7.6875 C 9.539062 -7.414062 10.300781 -6.953125 10.84375 -6.296875 C 11.382812 -5.648438 11.65625 -4.875 11.65625 -3.96875 C 11.65625 -2.695312 11.171875 -1.691406 10.203125 -0.953125 C 9.234375 -0.222656 7.929688 0.140625 6.296875 0.140625 C 4.660156 0.140625 3.359375 -0.222656 2.390625 -0.953125 C 1.421875 -1.691406 0.9375 -2.695312 0.9375 -3.96875 C 0.9375 -4.875 1.210938 -5.65625 1.765625 -6.3125 C 2.328125 -6.976562 3.085938 -7.4375 4.046875 -7.6875 C 3.148438 -7.945312 2.460938 -8.378906 1.984375 -8.984375 C 1.515625 -9.597656 1.28125 -10.320312 1.28125 -11.15625 C 1.28125 -11.945312 1.488281 -12.640625 1.90625 -13.234375 C 2.332031 -13.835938 2.925781 -14.300781 3.6875 -14.625 C 4.445312 -14.957031 5.316406 -15.125 6.296875 -15.125 C 7.273438 -15.125 8.144531 -14.957031 8.90625 -14.625 C 9.675781 -14.300781 10.269531 -13.835938 10.6875 -13.234375 C 11.101562 -12.640625 11.3125 -11.945312 11.3125 -11.15625 C 11.3125 -10.320312 11.070312 -9.597656 10.59375 -8.984375 C 10.113281 -8.378906 9.4375 -7.945312 8.5625 -7.6875 Z M 3 -11.03125 C 3 -10.226562 3.296875 -9.578125 3.890625 -9.078125 C 4.484375 -8.585938 5.285156 -8.285156 6.296875 -8.171875 C 7.304688 -8.285156 8.109375 -8.585938 8.703125 -9.078125 C 9.296875 -9.578125 9.59375 -10.226562 9.59375 -11.03125 C 9.59375 -11.851562 9.300781 -12.5 8.71875 -12.96875 C 8.144531 -13.445312 7.335938 -13.6875 6.296875 -13.6875 C 5.265625 -13.6875 4.457031 -13.445312 3.875 -12.96875 C 3.289062 -12.5 3 -11.851562 3 -11.03125 Z M 6.296875 -1.28125 C 7.472656 -1.28125 8.375 -1.515625 9 -1.984375 C 9.632812 -2.460938 9.953125 -3.160156 9.953125 -4.078125 C 9.953125 -4.898438 9.617188 -5.554688 8.953125 -6.046875 C 8.285156 -6.546875 7.398438 -6.851562 6.296875 -6.96875 C 5.191406 -6.851562 4.304688 -6.546875 3.640625 -6.046875 C 2.972656 -5.554688 2.640625 -4.898438 2.640625 -4.078125 C 2.640625 -3.160156 2.953125 -2.460938 3.578125 -1.984375 C 4.210938 -1.515625 5.117188 -1.28125 6.296875 -1.28125 Z M 6.296875 -1.28125 "/></g></g></g><g fill="#000000" fill-opacity="1"><g transform="translate(392.395355, 495.231787)"><g><path d="M 11.359375 -1.453125 L 11.359375 0 L 1.75 0 L 1.75 -1.296875 L 6.96875 -7.09375 C 7.664062 -7.882812 8.175781 -8.59375 8.5 -9.21875 C 8.820312 -9.84375 8.984375 -10.472656 8.984375 -11.109375 C 8.984375 -11.929688 8.742188 -12.5625 8.265625 -13 C 7.796875 -13.445312 7.117188 -13.671875 6.234375 -13.671875 C 4.804688 -13.671875 3.394531 -13.097656 2 -11.953125 L 1.34375 -13.265625 C 1.925781 -13.828125 2.664062 -14.273438 3.5625 -14.609375 C 4.457031 -14.953125 5.363281 -15.125 6.28125 -15.125 C 7.65625 -15.125 8.738281 -14.769531 9.53125 -14.0625 C 10.332031 -13.351562 10.734375 -12.394531 10.734375 -11.1875 C 10.734375 -10.332031 10.539062 -9.507812 10.15625 -8.71875 C 9.769531 -7.925781 9.128906 -7.039062 8.234375 -6.0625 L 3.96875 -1.453125 Z M 11.359375 -1.453125 "/></g></g></g><g fill="#000000" fill-opacity="1"><g transform="translate(404.995402, 495.231787)"><g><path d="M 5.84375 -15.125 C 7.644531 -15.125 9.035156 -14.492188 10.015625 -13.234375 C 10.992188 -11.972656 11.484375 -10.179688 11.484375 -7.859375 C 11.484375 -5.316406 10.972656 -3.34375 9.953125 -1.9375 C 8.941406 -0.53125 7.53125 0.171875 5.71875 0.171875 C 4.863281 0.171875 4.023438 0.0078125 3.203125 -0.3125 C 2.378906 -0.632812 1.65625 -1.09375 1.03125 -1.6875 L 1.703125 -3 C 2.410156 -2.394531 3.085938 -1.957031 3.734375 -1.6875 C 4.378906 -1.414062 5.03125 -1.28125 5.6875 -1.28125 C 6.976562 -1.28125 7.976562 -1.851562 8.6875 -3 C 9.394531 -4.144531 9.75 -5.753906 9.75 -7.828125 L 9.75 -8.109375 C 9.425781 -7.328125 8.898438 -6.707031 8.171875 -6.25 C 7.441406 -5.789062 6.609375 -5.5625 5.671875 -5.5625 C 4.765625 -5.5625 3.957031 -5.757812 3.25 -6.15625 C 2.550781 -6.5625 2.003906 -7.125 1.609375 -7.84375 C 1.222656 -8.5625 1.03125 -9.382812 1.03125 -10.3125 C 1.03125 -11.238281 1.234375 -12.0625 1.640625 -12.78125 C 2.054688 -13.507812 2.628906 -14.082031 3.359375 -14.5 C 4.085938 -14.914062 4.914062 -15.125 5.84375 -15.125 Z M 5.9375 -7.015625 C 6.914062 -7.015625 7.710938 -7.320312 8.328125 -7.9375 C 8.953125 -8.550781 9.265625 -9.347656 9.265625 -10.328125 C 9.265625 -11.328125 8.953125 -12.132812 8.328125 -12.75 C 7.710938 -13.363281 6.910156 -13.671875 5.921875 -13.671875 C 4.972656 -13.671875 4.203125 -13.363281 3.609375 -12.75 C 3.023438 -12.144531 2.734375 -11.335938 2.734375 -10.328125 C 2.734375 -9.335938 3.023438 -8.535156 3.609375 -7.921875 C 4.203125 -7.316406 4.976562 -7.015625 5.9375 -7.015625 Z M 5.9375 -7.015625 "/></g></g></g><g fill="#000000" fill-opacity="1"><g transform="translate(444.45724, 495.231787)"><g><path d="M 8.359375 -7.6875 C 9.242188 -7.4375 9.914062 -7 10.375 -6.375 C 10.832031 -5.757812 11.0625 -4.984375 11.0625 -4.046875 C 11.0625 -2.742188 10.617188 -1.71875 9.734375 -0.96875 C 8.859375 -0.226562 7.664062 0.140625 6.15625 0.140625 C 5.1875 0.140625 4.253906 -0.015625 3.359375 -0.328125 C 2.472656 -0.648438 1.722656 -1.109375 1.109375 -1.703125 L 1.78125 -3.03125 C 3.164062 -1.875 4.609375 -1.296875 6.109375 -1.296875 C 7.171875 -1.296875 7.976562 -1.535156 8.53125 -2.015625 C 9.082031 -2.492188 9.359375 -3.191406 9.359375 -4.109375 C 9.359375 -5.941406 8.210938 -6.859375 5.921875 -6.859375 L 4.203125 -6.859375 L 4.203125 -8.3125 L 5.59375 -8.3125 C 6.695312 -8.3125 7.539062 -8.554688 8.125 -9.046875 C 8.71875 -9.535156 9.015625 -10.238281 9.015625 -11.15625 C 9.015625 -11.96875 8.769531 -12.585938 8.28125 -13.015625 C 7.800781 -13.453125 7.117188 -13.671875 6.234375 -13.671875 C 4.804688 -13.671875 3.394531 -13.097656 2 -11.953125 L 1.34375 -13.265625 C 1.945312 -13.847656 2.6875 -14.300781 3.5625 -14.625 C 4.4375 -14.957031 5.347656 -15.125 6.296875 -15.125 C 7.640625 -15.125 8.710938 -14.78125 9.515625 -14.09375 C 10.328125 -13.40625 10.734375 -12.476562 10.734375 -11.3125 C 10.734375 -10.457031 10.519531 -9.707031 10.09375 -9.0625 C 9.675781 -8.425781 9.097656 -7.96875 8.359375 -7.6875 Z M 8.359375 -7.6875 "/></g></g></g><g fill="#000000" fill-opacity="1"><g transform="translate(457.057287, 495.231787)"><g><path d="M 6.296875 0.171875 C 4.585938 0.171875 3.289062 -0.472656 2.40625 -1.765625 C 1.519531 -3.066406 1.078125 -4.96875 1.078125 -7.46875 C 1.078125 -9.976562 1.519531 -11.878906 2.40625 -13.171875 C 3.289062 -14.472656 4.585938 -15.125 6.296875 -15.125 C 8.003906 -15.125 9.300781 -14.472656 10.1875 -13.171875 C 11.082031 -11.878906 11.53125 -9.988281 11.53125 -7.5 C 11.53125 -4.988281 11.082031 -3.082031 10.1875 -1.78125 C 9.300781 -0.476562 8.003906 0.171875 6.296875 0.171875 Z M 6.296875 -1.28125 C 7.484375 -1.28125 8.359375 -1.785156 8.921875 -2.796875 C 9.492188 -3.804688 9.78125 -5.375 9.78125 -7.5 C 9.78125 -9.613281 9.5 -11.164062 8.9375 -12.15625 C 8.382812 -13.15625 7.503906 -13.65625 6.296875 -13.65625 C 5.109375 -13.65625 4.226562 -13.15625 3.65625 -12.15625 C 3.09375 -11.164062 2.8125 -9.613281 2.8125 -7.5 C 2.8125 -5.382812 3.09375 -3.816406 3.65625 -2.796875 C 4.226562 -1.785156 5.109375 -1.28125 6.296875 -1.28125 Z M 6.296875 -1.28125 "/></g></g></g><g mask="url(#5ce94373d1)"><g transform="matrix(1, 0, 0, 1, 502, 474)"><g clip-path="url(#b334155c03)"><g fill="#000000" fill-opacity="1"><g transform="translate(0.812078, 21.231792)"><g><path d="M 7.734375 -1.453125 L 11.03125 -1.453125 L 11.03125 0 L 2.6875 0 L 2.6875 -1.453125 L 5.984375 -1.453125 L 5.984375 -12.8125 L 2.921875 -10.859375 L 2.921875 -12.515625 L 6.734375 -14.953125 L 7.734375 -14.953125 Z M 7.734375 -1.453125 "/></g></g></g></g></g></g><g mask="url(#149506cf14)"><g transform="matrix(1, 0, 0, 1, 554, 474)"><g clip-path="url(#0f323f7399)"><g fill="#000000" fill-opacity="1"><g transform="translate(0.873941, 21.231792)"><g><path d="M 11.359375 -1.453125 L 11.359375 0 L 1.75 0 L 1.75 -1.296875 L 6.96875 -7.09375 C 7.664062 -7.882812 8.175781 -8.59375 8.5 -9.21875 C 8.820312 -9.84375 8.984375 -10.472656 8.984375 -11.109375 C 8.984375 -11.929688 8.742188 -12.5625 8.265625 -13 C 7.796875 -13.445312 7.117188 -13.671875 6.234375 -13.671875 C 4.804688 -13.671875 3.394531 -13.097656 2 -11.953125 L 1.34375 -13.265625 C 1.925781 -13.828125 2.664062 -14.273438 3.5625 -14.609375 C 4.457031 -14.953125 5.363281 -15.125 6.28125 -15.125 C 7.65625 -15.125 8.738281 -14.769531 9.53125 -14.0625 C 10.332031 -13.351562 10.734375 -12.394531 10.734375 -11.1875 C 10.734375 -10.332031 10.539062 -9.507812 10.15625 -8.71875 C 9.769531 -7.925781 9.128906 -7.039062 8.234375 -6.0625 L 3.96875 -1.453125 Z M 11.359375 -1.453125 "/></g></g></g></g></g></g></svg>