<svg xmlns="http://www.w3.org/2000/svg" xmlns:xlink="http://www.w3.org/1999/xlink" width="500" zoomAndPan="magnify" viewBox="0 0 375 374.999991" height="500" preserveAspectRatio="xMidYMid meet" version="1.0"><defs><g/><clipPath id="75434c5d6e"><path d="M 196 148 L 206 148 L 206 191.824219 L 196 191.824219 Z M 196 148 " clip-rule="nonzero"/></clipPath><clipPath id="a1b8f14ff1"><path d="M 210 122.074219 L 220 122.074219 L 220 175 L 210 175 Z M 210 122.074219 " clip-rule="nonzero"/></clipPath></defs><path fill="#dd390d" d="M 155.460938 162.707031 L 165 165.101562 L 165 141.214844 L 155.460938 138.820312 Z M 155.460938 162.707031 " fill-opacity="1" fill-rule="nonzero"/><path fill="#279b48" d="M 169.097656 155.53125 L 178.636719 157.921875 L 178.636719 131.644531 L 169.097656 129.25 Z M 169.097656 155.53125 " fill-opacity="1" fill-rule="nonzero"/><path fill="#dd390d" d="M 182.753906 171.832031 L 192.292969 174.222656 L 192.292969 143.140625 L 182.753906 140.75 Z M 182.753906 171.832031 " fill-opacity="1" fill-rule="nonzero"/><g clip-path="url(#75434c5d6e)"><path fill="#dd390d" d="M 196.410156 189.453125 L 205.949219 191.84375 L 205.949219 151.191406 L 196.410156 148.796875 Z M 196.410156 189.453125 " fill-opacity="1" fill-rule="nonzero"/></g><g clip-path="url(#a1b8f14ff1)"><path fill="#279b48" d="M 210.046875 122.054688 L 210.046875 172.277344 L 219.585938 174.671875 L 219.585938 124.445312 Z M 210.046875 122.054688 " fill-opacity="1" fill-rule="nonzero"/></g><g fill="#000000" fill-opacity="1"><g transform="translate(137.140049, 220.524917)"><g><path d="M 14.25 -14.84375 L 8.703125 -14.84375 L 8.703125 0 L 5.75 0 L 5.75 -14.84375 L 0.21875 -14.84375 L 0.21875 -17.5 L 14.25 -17.5 Z M 14.25 -14.84375 "/></g></g></g><g fill="#000000" fill-opacity="1"><g transform="translate(157.187756, 220.524917)"><g><path d="M 13.59375 -3.953125 L 4.78125 -3.953125 L 3.09375 0 L 0.03125 0 L 7.75 -17.5 L 10.78125 -17.5 L 18.421875 0 L 15.28125 0 Z M 12.46875 -6.578125 L 9.171875 -14.34375 L 5.875 -6.578125 Z M 12.46875 -6.578125 "/></g></g></g><g fill="#000000" fill-opacity="1"><g transform="translate(181.209825, 220.524917)"><g><path d="M 10.40625 -9.09375 L 16.78125 0 L 13.25 0 L 8.53125 -6.59375 L 3.828125 0 L 0.375 0 L 6.75 -8.96875 L 0.828125 -17.5 L 4.25 -17.5 L 8.53125 -11.421875 L 12.828125 -17.5 L 16.28125 -17.5 Z M 10.40625 -9.09375 "/></g></g></g><g fill="#ff5757" fill-opacity="1"><g transform="translate(204.089267, 220.524917)"><g><path d="M 5.25 0 L 2.296875 0 L 2.296875 -17.5 L 5.25 -17.5 Z M 5.25 0 "/></g></g></g><g fill="#ff5757" fill-opacity="1"><g transform="translate(217.21307, 220.524917)"><g><path d="M 19.25 -0.15625 L 20.421875 1.921875 C 18.972656 3.203125 17.390625 3.84375 15.671875 3.84375 C 14.585938 3.84375 13.5625 3.519531 12.59375 2.875 C 11.632812 2.226562 10.800781 1.3125 10.09375 0.125 C 7.476562 0.101562 5.28125 -0.753906 3.5 -2.453125 C 1.726562 -4.148438 0.84375 -6.25 0.84375 -8.75 C 0.84375 -11.25 1.734375 -13.34375 3.515625 -15.03125 C 5.304688 -16.726562 7.507812 -17.578125 10.125 -17.578125 C 12.738281 -17.578125 14.9375 -16.726562 16.71875 -15.03125 C 18.507812 -13.34375 19.40625 -11.25 19.40625 -8.75 C 19.40625 -6.769531 18.820312 -5.015625 17.65625 -3.484375 C 16.5 -1.960938 14.976562 -0.910156 13.09375 -0.328125 C 14.09375 0.753906 15.070312 1.296875 16.03125 1.296875 C 16.945312 1.296875 18.019531 0.8125 19.25 -0.15625 Z M 5.6875 -13.125 C 4.457031 -11.9375 3.84375 -10.476562 3.84375 -8.75 C 3.84375 -7.019531 4.460938 -5.550781 5.703125 -4.34375 C 6.953125 -3.132812 8.429688 -2.53125 10.140625 -2.53125 C 11.859375 -2.53125 13.328125 -3.132812 14.546875 -4.34375 C 15.765625 -5.550781 16.375 -7.019531 16.375 -8.75 C 16.375 -10.476562 15.765625 -11.9375 14.546875 -13.125 C 13.328125 -14.320312 11.863281 -14.921875 10.15625 -14.921875 C 8.414062 -14.921875 6.925781 -14.320312 5.6875 -13.125 Z M 5.6875 -13.125 "/></g></g></g></svg>