<svg xmlns="http://www.w3.org/2000/svg" xmlns:xlink="http://www.w3.org/1999/xlink" width="940" zoomAndPan="magnify" viewBox="0 0 705 591.000005" height="788" preserveAspectRatio="xMidYMid meet" version="1.0"><defs><filter x="0%" y="0%" width="100%" height="100%" id="19f253578c"><feColorMatrix values="0 0 0 0 1 0 0 0 0 1 0 0 0 0 1 0 0 0 1 0" color-interpolation-filters="sRGB"/></filter><mask id="59b19ffaaf"><g filter="url(#19f253578c)"><rect x="-70.5" width="846" fill="#000000" y="-59.100001" height="709.200006" fill-opacity="0.58"/></g></mask><clipPath id="0a76dd52f7"><path d="M 6 154 L 348.820312 154 L 348.820312 314.234375 L 6 314.234375 Z M 6 154 " clip-rule="nonzero"/></clipPath><clipPath id="8e25c0c9de"><path d="M 0.953125 0.515625 L 310 0.515625 L 310 254 L 0.953125 254 Z M 0.953125 0.515625 " clip-rule="nonzero"/></clipPath><clipPath id="88de0c0e65"><rect x="0" width="349" y="0" height="315"/></clipPath></defs><g mask="url(#59b19ffaaf)"><g transform="matrix(1, 0, 0, 1, 205, 131)"><g clip-path="url(#88de0c0e65)"><g clip-path="url(#0a76dd52f7)"><path fill="#eb0808" d="M 345.953125 154.78125 L 301.476562 155.585938 C 299.386719 155.621094 298.1875 157.980469 299.386719 159.691406 L 306.269531 169.542969 C 306.363281 169.671875 306.332031 169.855469 306.203125 169.945312 L 158.605469 274.941406 C 158.414062 275.078125 158.148438 274.9375 158.148438 274.707031 L 158.148438 194.707031 C 158.148438 193.652344 157.59375 192.675781 156.6875 192.136719 C 155.78125 191.59375 154.65625 191.570312 153.730469 192.078125 L 7.753906 271.167969 C 7.054688 271.546875 6.539062 272.1875 6.3125 272.949219 C 6.089844 273.710938 6.175781 274.53125 6.554688 275.226562 L 13.980469 288.898438 C 14.765625 290.351562 16.582031 290.886719 18.035156 290.097656 L 136.199219 226.152344 C 136.394531 226.042969 136.628906 226.1875 136.628906 226.40625 L 136.628906 311.003906 C 136.628906 311.863281 136.894531 312.734375 137.503906 313.335938 C 138.105469 313.917969 138.863281 314.203125 139.617188 314.203125 C 140.226562 314.203125 140.832031 314.015625 141.347656 313.652344 L 318.535156 187.605469 C 318.664062 187.511719 318.84375 187.542969 318.9375 187.675781 L 327.859375 200.445312 C 329.054688 202.160156 331.675781 201.835938 332.425781 199.890625 L 348.433594 158.328125 C 349.097656 156.597656 347.800781 154.746094 345.953125 154.78125 " fill-opacity="1" fill-rule="nonzero"/></g><path fill="#009245" d="M 89.875 106.355469 L 89.875 217.816406 C 89.875 217.921875 89.816406 218.019531 89.722656 218.070312 L 47.570312 241.027344 C 47.378906 241.128906 47.144531 240.992188 47.144531 240.777344 L 47.144531 106.355469 C 47.144531 106.195312 47.273438 106.066406 47.433594 106.066406 L 89.585938 106.066406 C 89.742188 106.066406 89.875 106.195312 89.875 106.355469 " fill-opacity="1" fill-rule="nonzero"/><path fill="#2e93e5" d="M 201.011719 133.910156 L 201.011719 235.078125 C 201.011719 235.167969 200.96875 235.261719 200.890625 235.3125 L 166.378906 259.863281 C 166.1875 260 165.925781 259.859375 165.925781 259.628906 L 165.925781 194.703125 C 165.925781 190.933594 163.902344 187.378906 160.664062 185.449219 C 159.96875 185.042969 159.246094 184.703125 158.496094 184.46875 C 158.375 184.433594 158.296875 184.324219 158.296875 184.199219 L 158.296875 133.910156 C 158.296875 133.75 158.425781 133.617188 158.585938 133.617188 L 200.726562 133.617188 C 200.886719 133.617188 201.011719 133.75 201.011719 133.910156 " fill-opacity="1" fill-rule="nonzero"/><path fill="#eb0808" d="M 145.445312 67.449219 L 145.445312 187.5625 C 145.445312 187.671875 145.386719 187.765625 145.292969 187.816406 L 103.152344 210.761719 C 102.960938 210.867188 102.726562 210.730469 102.726562 210.507812 L 102.726562 67.449219 C 102.726562 67.289062 102.855469 67.160156 103.015625 67.160156 L 145.15625 67.160156 C 145.3125 67.160156 145.445312 67.289062 145.445312 67.449219 " fill-opacity="1" fill-rule="nonzero"/><g clip-path="url(#8e25c0c9de)"><path fill="#009245" d="M 16.488281 245.527344 L 16.488281 42.9375 C 16.488281 28.148438 28.507812 16.109375 43.28125 16.109375 L 266.667969 16.109375 C 281.445312 16.109375 293.460938 28.148438 293.460938 42.9375 L 293.460938 132.992188 C 293.460938 137.289062 296.945312 140.777344 301.234375 140.777344 C 305.527344 140.777344 309.003906 137.289062 309.003906 132.992188 L 309.003906 42.9375 C 309.003906 19.5625 290.011719 0.546875 266.667969 0.546875 L 43.28125 0.546875 C 19.9375 0.546875 0.949219 19.5625 0.949219 42.9375 L 0.949219 245.527344 C 0.949219 249.824219 4.425781 253.304688 8.71875 253.304688 C 13.011719 253.304688 16.488281 249.824219 16.488281 245.527344 Z M 260.769531 44.976562 L 260.769531 192.566406 C 260.769531 192.660156 260.722656 192.75 260.644531 192.804688 L 218.492188 222.789062 C 218.304688 222.921875 218.039062 222.789062 218.039062 222.550781 L 218.039062 44.976562 C 218.039062 44.816406 218.167969 44.691406 218.324219 44.691406 L 260.480469 44.691406 C 260.640625 44.691406 260.769531 44.816406 260.769531 44.976562 " fill-opacity="1" fill-rule="nonzero"/></g></g></g></g></svg>